<svg width="25" height="25" version="1.1" viewBox="0 0 6.6146 6.6146" xmlns="http://www.w3.org/2000/svg">
<g transform="translate(0 -290.39)">
<path d="m3.3071 290.39a3.3075 3.3075 0 0 0-3.3071 3.3071 3.3075 3.3075 0 0 0 3.3071 3.3075 3.3075 3.3075 0 0 0 3.3075-3.3075 3.3075 3.3075 0 0 0-3.3075-3.3071zm0.03 1.4428c0.083 0 0.1525 0.03 0.2089 0.089 0.06 0.06 0.09 0.1314 0.09 0.2144 0 0.086-0.03 0.159-0.09 0.2188-0.057 0.056-0.1277 0.085-0.214 0.085-0.086 0-0.1576-0.03-0.2141-0.089-0.053-0.06-0.079-0.1311-0.079-0.2141s0.028-0.1547 0.085-0.2144c0.057-0.06 0.1277-0.089 0.214-0.089zm0.2441 1.3043v1.9916c0 0.053 0.010001 0.096 0.014999 0.1293 0.010001 0.03 0.028 0.055 0.055 0.075 0.03 0.017 0.07 0.028 0.1195 0.035h0.2089 0.035v0.1891h-1.3542v-0.1891h0.04 0.199c0.053-0.01 0.093-0.018 0.1195-0.035 0.03-0.02 0.048-0.045 0.055-0.075 0.010001-0.033 0.014999-0.076 0.014999-0.1293v-1.4539c0-0.057 0-0.1009-0.010001-0.1341 0-0.037-0.013999-0.063-0.03-0.08-0.016999-0.02-0.04-0.033-0.07-0.04-0.026001-0.01-0.065-0.01-0.1147-0.01h-0.2639v-0.2188z" fill="#440045" style="paint-order:markers stroke fill"/>
</g>
</svg>
