<?xml version="1.0" encoding="UTF-8" standalone="no"?>
<!-- Created with Inkscape (http://www.inkscape.org/) -->

<svg
   xmlns:dc="http://purl.org/dc/elements/1.1/"
   xmlns:cc="http://creativecommons.org/ns#"
   xmlns:rdf="http://www.w3.org/1999/02/22-rdf-syntax-ns#"
   xmlns:svg="http://www.w3.org/2000/svg"
   xmlns="http://www.w3.org/2000/svg"
   xmlns:sodipodi="http://sodipodi.sourceforge.net/DTD/sodipodi-0.dtd"
   xmlns:inkscape="http://www.inkscape.org/namespaces/inkscape"
   width="179.73801"
   height="21.707001"
   viewBox="0 0 47.555679 5.7433107"
   version="1.1"
   id="svg10179"
   inkscape:version="0.92.3 (2405546, 2018-03-11)"
   sodipodi:docname="3b.svg">
  <defs
     id="defs10173" />
  <sodipodi:namedview
     id="base"
     pagecolor="#ffffff"
     bordercolor="#666666"
     borderopacity="1.0"
     inkscape:pageopacity="0.0"
     inkscape:pageshadow="2"
     inkscape:zoom="4"
     inkscape:cx="66.327343"
     inkscape:cy="-1.2471064"
     inkscape:document-units="mm"
     inkscape:current-layer="layer1"
     showgrid="false"
     units="px"
     inkscape:window-width="1853"
     inkscape:window-height="1025"
     inkscape:window-x="1433"
     inkscape:window-y="27"
     inkscape:window-maximized="1" />
  <metadata
     id="metadata10176">
    <rdf:RDF>
      <cc:Work
         rdf:about="">
        <dc:format>image/svg+xml</dc:format>
        <dc:type
           rdf:resource="http://purl.org/dc/dcmitype/StillImage" />
        <dc:title></dc:title>
      </cc:Work>
    </rdf:RDF>
  </metadata>
  <g
     inkscape:label="Layer 1"
     inkscape:groupmode="layer"
     id="layer1"
     transform="translate(0,-291.25667)">
    <path
       style="font-style:normal;font-variant:normal;font-weight:normal;font-stretch:normal;font-size:4.97813368px;line-height:1.5;font-family:Raleway;-inkscape-font-specification:Raleway;letter-spacing:0px;word-spacing:0px;fill:#ffffff;fill-opacity:1;stroke:none;stroke-width:0.20742224"
       d="M 21.078125 0 L 21.078125 21.414062 L 23.072266 21.414062 L 23.072266 12.056641 C 23.248266 11.430863 23.511281 10.854172 23.863281 10.326172 C 24.234837 9.7981719 24.665408 9.3383767 25.154297 8.9472656 C 25.643186 8.5561545 26.161429 8.2522205 26.708984 8.0371094 C 27.276095 7.8024427 27.843045 7.6855469 28.410156 7.6855469 C 29.563934 7.6855469 30.434818 8.116118 31.021484 8.9765625 C 31.627707 9.837007 31.929688 11.136509 31.929688 12.876953 L 31.929688 21.414062 L 33.925781 21.414062 L 33.925781 12.466797 C 33.925781 11.489019 33.838109 10.598653 33.662109 9.796875 C 33.486109 8.9755417 33.201658 8.2819549 32.810547 7.7148438 C 32.419436 7.1281771 31.920675 6.6781233 31.314453 6.3652344 C 30.708231 6.0327899 29.965938 5.8671875 29.085938 5.8671875 C 27.834382 5.8671875 26.669306 6.1983923 25.59375 6.8632812 C 24.518194 7.5281702 23.678488 8.4380191 23.072266 9.5917969 L 23.072266 0 L 21.078125 0 z M 166.65625 0 L 166.65625 21.414062 L 168.65039 21.414062 L 168.65039 16.632812 L 171.93555 13.582031 L 177.56836 21.414062 L 179.73828 21.414062 L 173.25586 12.408203 L 179.50391 6.1601562 L 177.24414 6.1601562 L 168.65039 14.548828 L 168.65039 0 L 166.65625 0 z M 9.8847656 0.46875 C 8.3203212 0.46875 6.9234063 0.78242534 5.6914062 1.4082031 C 4.4594062 2.0144254 3.4229202 2.8073785 2.5820312 3.7851562 C 1.7411423 4.762934 1.094309 5.8773507 0.64453125 7.1289062 C 0.21430902 8.3609063 1.3999761e-17 9.60196 0 10.853516 C 0 12.183293 0.23379166 13.49449 0.703125 14.785156 C 1.1920139 16.056267 1.8680712 17.199908 2.7285156 18.216797 C 3.5889601 19.21413 4.6157048 20.024613 5.8085938 20.650391 C 7.0014827 21.276168 8.3107257 21.589844 9.7382812 21.589844 C 10.540059 21.589844 11.352495 21.482689 12.173828 21.267578 C 13.014717 21.052467 13.805717 20.738792 14.548828 20.328125 C 15.291939 19.917458 15.967997 19.418698 16.574219 18.832031 C 17.180441 18.225809 17.648024 17.532222 17.980469 16.75 L 16.279297 15.869141 C 15.946852 16.553585 15.537717 17.140017 15.048828 17.628906 C 14.559939 18.09824 14.022214 18.499587 13.435547 18.832031 C 12.868436 19.14492 12.270309 19.380665 11.644531 19.537109 C 11.038309 19.673998 10.442135 19.742188 9.8554688 19.742188 C 8.7408021 19.742188 7.704316 19.506443 6.7460938 19.037109 C 5.8074271 18.54822 4.9872031 17.90334 4.2832031 17.101562 C 3.5987587 16.280229 3.0512917 15.341156 2.640625 14.285156 C 2.2495139 13.229156 2.0527344 12.124481 2.0527344 10.970703 C 2.0527344 9.9147031 2.2202899 8.878217 2.5527344 7.8613281 C 2.8851788 6.8248837 3.3741979 5.8955521 4.0195312 5.0742188 C 4.6844202 4.2528854 5.4949028 3.5885226 6.453125 3.0800781 C 7.4113472 2.5716337 8.5160225 2.3183594 9.7675781 2.3183594 C 10.334689 2.3183594 10.91138 2.3865486 11.498047 2.5234375 C 12.084714 2.6407708 12.651663 2.8453385 13.199219 3.1386719 C 13.746774 3.4320052 14.255276 3.8138698 14.724609 4.2832031 C 15.213498 4.7525365 15.624587 5.3292274 15.957031 6.0136719 L 17.570312 5.015625 C 16.944535 3.6662916 15.966497 2.5713577 14.636719 1.7304688 C 13.326497 0.88957985 11.742543 0.46875 9.8847656 0.46875 z M 112.58203 0.5859375 L 112.58203 21.414062 L 122.4082 21.414062 C 123.20998 21.414062 123.96397 21.285472 124.66797 21.03125 C 125.37197 20.757472 125.98762 20.387302 126.51562 19.917969 C 127.04363 19.42908 127.46445 18.86213 127.77734 18.216797 C 128.09023 17.551908 128.24609 16.827144 128.24609 16.044922 C 128.24609 14.773811 127.89345 13.659394 127.18945 12.701172 C 126.50501 11.74295 125.56594 11.088328 124.37305 10.736328 C 125.31171 10.306106 126.04622 9.6612257 126.57422 8.8007812 C 127.10222 7.9207812 127.36523 6.9524844 127.36523 5.8964844 C 127.36523 5.251151 127.24834 4.6160122 127.01367 3.9902344 C 126.79856 3.344901 126.48489 2.7779514 126.07422 2.2890625 C 125.66355 1.780618 125.16479 1.3695295 124.57812 1.0566406 C 123.99146 0.74375173 123.33684 0.5859375 122.61328 0.5859375 L 112.58203 0.5859375 z M 114.63477 2.3769531 L 121.96875 2.3769531 C 122.45764 2.3769531 122.90769 2.4841076 123.31836 2.6992188 C 123.72903 2.8947743 124.07971 3.1675312 124.37305 3.5195312 C 124.68594 3.8519757 124.92168 4.2533229 125.07812 4.7226562 C 125.25413 5.1919896 125.3418 5.69075 125.3418 6.21875 C 125.3418 6.7271945 125.25413 7.2162135 125.07812 7.6855469 C 124.90212 8.1353247 124.65664 8.5366719 124.34375 8.8886719 C 124.03086 9.2406719 123.65095 9.5231701 123.20117 9.7382812 C 122.77095 9.9533924 122.30141 10.0625 121.79297 10.0625 L 114.63477 10.0625 L 114.63477 2.3769531 z M 44.71875 5.8671875 C 43.623639 5.8671875 42.616377 6.0814965 41.697266 6.5117188 C 40.778154 6.941941 39.977413 7.5186319 39.292969 8.2421875 C 38.62808 8.9657431 38.100095 9.8074028 37.708984 10.765625 C 37.337429 11.723847 37.152344 12.740851 37.152344 13.816406 C 37.152344 14.872406 37.337429 15.879668 37.708984 16.837891 C 38.08054 17.796113 38.598783 18.635819 39.263672 19.359375 C 39.948116 20.082931 40.748858 20.661575 41.667969 21.091797 C 42.58708 21.502464 43.604083 21.707031 44.71875 21.707031 C 45.833417 21.707031 46.85042 21.502464 47.769531 21.091797 C 48.708198 20.661575 49.510892 20.082931 50.175781 19.359375 C 50.860226 18.635819 51.38821 17.796113 51.759766 16.837891 C 52.131321 15.879668 52.316406 14.872406 52.316406 13.816406 C 52.316406 12.740851 52.12158 11.723847 51.730469 10.765625 C 51.358913 9.8074028 50.830929 8.9657431 50.146484 8.2421875 C 49.481595 7.5186319 48.678901 6.941941 47.740234 6.5117188 C 46.821123 6.0814965 45.813861 5.8671875 44.71875 5.8671875 z M 62.193359 5.8671875 C 61.098248 5.8671875 60.090986 6.0814965 59.171875 6.5117188 C 58.252764 6.941941 57.452023 7.5186319 56.767578 8.2421875 C 56.102689 8.9657431 55.574705 9.8074028 55.183594 10.765625 C 54.812038 11.723847 54.625 12.740851 54.625 13.816406 C 54.625 14.872406 54.812038 15.879668 55.183594 16.837891 C 55.555149 17.796113 56.073392 18.635819 56.738281 19.359375 C 57.422726 20.082931 58.223467 20.661575 59.142578 21.091797 C 60.061689 21.502464 61.078693 21.707031 62.193359 21.707031 C 63.308026 21.707031 64.325029 21.502464 65.244141 21.091797 C 66.182807 20.661575 66.985502 20.082931 67.650391 19.359375 C 68.334835 18.635819 68.862819 17.796113 69.234375 16.837891 C 69.605931 15.879668 69.791016 14.872406 69.791016 13.816406 C 69.791016 12.740851 69.596189 11.723847 69.205078 10.765625 C 68.833523 9.8074028 68.305538 8.9657431 67.621094 8.2421875 C 66.956205 7.5186319 66.15351 6.941941 65.214844 6.5117188 C 64.295733 6.0814965 63.288471 5.8671875 62.193359 5.8671875 z M 78.230469 5.8671875 C 77.448247 5.8671875 76.704 5.9646007 76 6.1601562 C 75.315556 6.3557118 74.709641 6.6499045 74.181641 7.0410156 C 73.673196 7.4125712 73.262108 7.8898958 72.949219 8.4765625 C 72.655885 9.0632292 72.509766 9.7392864 72.509766 10.501953 C 72.509766 11.108175 72.607179 11.616677 72.802734 12.027344 C 73.017845 12.418455 73.331521 12.74966 73.742188 13.023438 C 74.17241 13.297215 74.710135 13.542701 75.355469 13.757812 C 76.000802 13.972924 76.762578 14.187233 77.642578 14.402344 C 78.405245 14.578344 79.071561 14.755641 79.638672 14.931641 C 80.225339 15.088085 80.704616 15.27317 81.076172 15.488281 C 81.467283 15.703392 81.759523 15.956667 81.955078 16.25 C 82.150634 16.523778 82.248047 16.876418 82.248047 17.306641 C 82.248047 18.225752 81.877877 18.938821 81.134766 19.447266 C 80.41121 19.936155 79.433172 20.181641 78.201172 20.181641 C 77.184283 20.181641 76.225727 20.006297 75.326172 19.654297 C 74.446172 19.302297 73.575288 18.774313 72.714844 18.070312 L 71.806641 19.417969 C 72.627974 20.16108 73.606012 20.729983 74.740234 21.121094 C 75.874457 21.512205 77.03758 21.707031 78.230469 21.707031 C 80.049135 21.707031 81.49671 21.295943 82.572266 20.474609 C 83.647821 19.653276 84.185547 18.538859 84.185547 17.130859 C 84.185547 16.485526 84.056957 15.938059 83.802734 15.488281 C 83.548512 15.038503 83.168601 14.656639 82.660156 14.34375 C 82.171267 14.030861 81.553658 13.758104 80.810547 13.523438 C 80.067436 13.288771 79.208247 13.053026 78.230469 12.818359 C 77.546024 12.661915 76.959592 12.515795 76.470703 12.378906 C 76.00137 12.222462 75.609764 12.056859 75.296875 11.880859 C 74.983986 11.685304 74.759936 11.4593 74.623047 11.205078 C 74.486158 10.950856 74.416016 10.619651 74.416016 10.208984 C 74.416016 9.7200955 74.515382 9.2992656 74.710938 8.9472656 C 74.906493 8.5757101 75.169509 8.271776 75.501953 8.0371094 C 75.853953 7.8024427 76.2553 7.6368403 76.705078 7.5390625 C 77.154856 7.4217292 77.643875 7.3632812 78.171875 7.3632812 C 79.051875 7.3632813 79.891582 7.509401 80.693359 7.8027344 C 81.514693 8.0960677 82.210233 8.5363802 82.777344 9.1230469 L 83.744141 7.9492188 C 83.157474 7.323441 82.385957 6.8246806 81.427734 6.453125 C 80.469512 6.0620139 79.403802 5.8671875 78.230469 5.8671875 z M 93.992188 5.8671875 C 92.897076 5.8671875 91.880073 6.0814965 90.941406 6.5117188 C 90.00274 6.9223854 89.190304 7.4893351 88.505859 8.2128906 C 87.84097 8.9168906 87.312986 9.748809 86.921875 10.707031 C 86.550319 11.645698 86.365234 12.65296 86.365234 13.728516 C 86.365234 14.823627 86.550319 15.850372 86.921875 16.808594 C 87.312986 17.766816 87.850712 18.616264 88.535156 19.359375 C 89.219601 20.082931 90.022295 20.661575 90.941406 21.091797 C 91.880073 21.502464 92.906818 21.707031 94.021484 21.707031 C 94.764596 21.707031 95.477665 21.609618 96.162109 21.414062 C 96.846554 21.238062 97.471951 20.982835 98.039062 20.650391 C 98.606174 20.298391 99.104934 19.897043 99.535156 19.447266 C 99.965378 18.977932 100.29854 18.459689 100.5332 17.892578 L 98.802734 17.423828 C 98.626734 17.834495 98.371507 18.216359 98.039062 18.568359 C 97.706618 18.900804 97.336448 19.183302 96.925781 19.417969 C 96.515115 19.652635 96.065061 19.839674 95.576172 19.976562 C 95.087283 20.113451 94.598264 20.181641 94.109375 20.181641 C 93.366264 20.181641 92.660983 20.045262 91.996094 19.771484 C 91.35076 19.478151 90.774069 19.076804 90.265625 18.568359 C 89.757181 18.059915 89.338304 17.463741 89.005859 16.779297 C 88.69297 16.075297 88.505932 15.311568 88.447266 14.490234 L 101.53125 14.490234 C 101.55081 14.431568 101.56055 14.324413 101.56055 14.167969 L 101.56055 13.699219 C 101.56055 12.643219 101.37351 11.645698 101.00195 10.707031 C 100.6304 9.7683646 100.11215 8.9364462 99.447266 8.2128906 C 98.782377 7.4893351 97.981635 6.9223854 97.042969 6.5117188 C 96.123858 6.0814965 95.106854 5.8671875 93.992188 5.8671875 z M 138.21875 5.8671875 C 137.12364 5.8671875 136.11638 6.0814965 135.19727 6.5117188 C 134.27815 6.941941 133.47741 7.5186319 132.79297 8.2421875 C 132.12808 8.9657431 131.6001 9.8074028 131.20898 10.765625 C 130.83743 11.723847 130.65234 12.740851 130.65234 13.816406 C 130.65234 14.872406 130.83743 15.879668 131.20898 16.837891 C 131.58054 17.796113 132.09878 18.635819 132.76367 19.359375 C 133.44812 20.082931 134.24886 20.661575 135.16797 21.091797 C 136.08708 21.502464 137.10408 21.707031 138.21875 21.707031 C 139.33342 21.707031 140.35042 21.502464 141.26953 21.091797 C 142.2082 20.661575 143.01089 20.082931 143.67578 19.359375 C 144.36023 18.635819 144.88821 17.796113 145.25977 16.837891 C 145.63132 15.879668 145.81641 14.872406 145.81641 13.816406 C 145.81641 12.740851 145.62158 11.723847 145.23047 10.765625 C 144.85891 9.8074028 144.33093 8.9657431 143.64648 8.2421875 C 142.9816 7.5186319 142.1789 6.941941 141.24023 6.5117188 C 140.32112 6.0814965 139.31386 5.8671875 138.21875 5.8671875 z M 155.69336 5.8671875 C 154.59825 5.8671875 153.59099 6.0814965 152.67188 6.5117188 C 151.75276 6.941941 150.95202 7.5186319 150.26758 8.2421875 C 149.60269 8.9657431 149.0747 9.8074028 148.68359 10.765625 C 148.31204 11.723847 148.125 12.740851 148.125 13.816406 C 148.125 14.872406 148.31204 15.879668 148.68359 16.837891 C 149.05515 17.796113 149.57339 18.635819 150.23828 19.359375 C 150.92273 20.082931 151.72347 20.661575 152.64258 21.091797 C 153.56169 21.502464 154.57869 21.707031 155.69336 21.707031 C 156.80803 21.707031 157.82503 21.502464 158.74414 21.091797 C 159.68281 20.661575 160.4855 20.082931 161.15039 19.359375 C 161.83484 18.635819 162.36282 17.796113 162.73438 16.837891 C 163.10593 15.879668 163.29102 14.872406 163.29102 13.816406 C 163.29102 12.740851 163.09619 11.723847 162.70508 10.765625 C 162.33352 9.8074028 161.80554 8.9657431 161.12109 8.2421875 C 160.4562 7.5186319 159.65351 6.941941 158.71484 6.5117188 C 157.79573 6.0814965 156.78847 5.8671875 155.69336 5.8671875 z M 94.021484 7.421875 C 94.764596 7.421875 95.458182 7.5582535 96.103516 7.8320312 C 96.768405 8.105809 97.345095 8.4876736 97.833984 8.9765625 C 98.342429 9.4654514 98.753517 10.051884 99.066406 10.736328 C 99.398851 11.401217 99.593677 12.14351 99.652344 12.964844 L 88.417969 12.964844 C 88.476635 12.163066 88.653932 11.420773 88.947266 10.736328 C 89.260155 10.051884 89.659549 9.4654514 90.148438 8.9765625 C 90.656882 8.4876736 91.243314 8.105809 91.908203 7.8320312 C 92.573092 7.5582535 93.278373 7.421875 94.021484 7.421875 z M 44.71875 7.6269531 C 45.481417 7.6269531 46.196439 7.7925555 46.861328 8.125 C 47.545773 8.4378889 48.141946 8.8782014 48.650391 9.4453125 C 49.158835 9.9928681 49.560182 10.64749 49.853516 11.410156 C 50.146849 12.153267 50.292969 12.94622 50.292969 13.787109 C 50.292969 14.647554 50.146849 15.448295 49.853516 16.191406 C 49.560182 16.934517 49.158835 17.591092 48.650391 18.158203 C 48.141946 18.705759 47.545773 19.144118 46.861328 19.476562 C 46.196439 19.789451 45.481417 19.947266 44.71875 19.947266 C 43.956083 19.947266 43.233273 19.789451 42.548828 19.476562 C 41.883939 19.163674 41.297507 18.735056 40.789062 18.1875 C 40.300174 17.620389 39.908568 16.973556 39.615234 16.25 C 39.321901 15.506889 39.175781 14.706148 39.175781 13.845703 C 39.175781 12.985259 39.321901 12.182564 39.615234 11.439453 C 39.908568 10.676786 40.309915 10.012424 40.818359 9.4453125 C 41.326804 8.8782014 41.913236 8.4378889 42.578125 8.125 C 43.243014 7.7925555 43.956083 7.6269531 44.71875 7.6269531 z M 62.193359 7.6269531 C 62.956026 7.6269531 63.669095 7.7925555 64.333984 8.125 C 65.018429 8.4378889 65.616556 8.8782014 66.125 9.4453125 C 66.633444 9.9928681 67.032839 10.64749 67.326172 11.410156 C 67.619505 12.153267 67.767578 12.94622 67.767578 13.787109 C 67.767578 14.647554 67.619505 15.448295 67.326172 16.191406 C 67.032839 16.934517 66.633444 17.591092 66.125 18.158203 C 65.616556 18.705759 65.018429 19.144118 64.333984 19.476562 C 63.669095 19.789451 62.956026 19.947266 62.193359 19.947266 C 61.430693 19.947266 60.707882 19.789451 60.023438 19.476562 C 59.358549 19.163674 58.772116 18.735056 58.263672 18.1875 C 57.774783 17.620389 57.383177 16.973556 57.089844 16.25 C 56.79651 15.506889 56.650391 14.706148 56.650391 13.845703 C 56.650391 12.985259 56.79651 12.182564 57.089844 11.439453 C 57.383177 10.676786 57.784524 10.012424 58.292969 9.4453125 C 58.801413 8.8782014 59.387845 8.4378889 60.052734 8.125 C 60.717623 7.7925555 61.430693 7.6269531 62.193359 7.6269531 z M 138.21875 7.6269531 C 138.98142 7.6269531 139.69644 7.7925555 140.36133 8.125 C 141.04577 8.4378889 141.64195 8.8782014 142.15039 9.4453125 C 142.65884 9.9928681 143.06018 10.64749 143.35352 11.410156 C 143.64685 12.153267 143.79297 12.94622 143.79297 13.787109 C 143.79297 14.647554 143.64685 15.448295 143.35352 16.191406 C 143.06018 16.934517 142.65884 17.591092 142.15039 18.158203 C 141.64195 18.705759 141.04577 19.144118 140.36133 19.476562 C 139.69644 19.789451 138.98142 19.947266 138.21875 19.947266 C 137.45608 19.947266 136.73327 19.789451 136.04883 19.476562 C 135.38394 19.163674 134.79751 18.735056 134.28906 18.1875 C 133.80017 17.620389 133.40857 16.973556 133.11523 16.25 C 132.8219 15.506889 132.67578 14.706148 132.67578 13.845703 C 132.67578 12.985259 132.8219 12.182564 133.11523 11.439453 C 133.40857 10.676786 133.80991 10.012424 134.31836 9.4453125 C 134.8268 8.8782014 135.41324 8.4378889 136.07812 8.125 C 136.74301 7.7925555 137.45608 7.6269531 138.21875 7.6269531 z M 155.69336 7.6269531 C 156.45603 7.6269531 157.1691 7.7925555 157.83398 8.125 C 158.51843 8.4378889 159.11656 8.8782014 159.625 9.4453125 C 160.13344 9.9928681 160.53284 10.64749 160.82617 11.410156 C 161.11951 12.153267 161.26758 12.94622 161.26758 13.787109 C 161.26758 14.647554 161.11951 15.448295 160.82617 16.191406 C 160.53284 16.934517 160.13344 17.591092 159.625 18.158203 C 159.11656 18.705759 158.51843 19.144118 157.83398 19.476562 C 157.1691 19.789451 156.45603 19.947266 155.69336 19.947266 C 154.93069 19.947266 154.20788 19.789451 153.52344 19.476562 C 152.85855 19.163674 152.27212 18.735056 151.76367 18.1875 C 151.27478 17.620389 150.88318 16.973556 150.58984 16.25 C 150.29651 15.506889 150.15039 14.706148 150.15039 13.845703 C 150.15039 12.985259 150.29651 12.182564 150.58984 11.439453 C 150.88318 10.676786 151.28452 10.012424 151.79297 9.4453125 C 152.30141 8.8782014 152.88785 8.4378889 153.55273 8.125 C 154.21762 7.7925555 154.93069 7.6269531 155.69336 7.6269531 z M 114.63477 11.734375 L 122.61328 11.734375 C 123.12173 11.734375 123.59126 11.851271 124.02148 12.085938 C 124.47126 12.301049 124.85313 12.593288 125.16602 12.964844 C 125.49846 13.316844 125.75173 13.737674 125.92773 14.226562 C 126.10373 14.695896 126.19336 15.184915 126.19336 15.693359 C 126.19336 16.201804 126.09399 16.700564 125.89844 17.189453 C 125.70288 17.658786 125.43013 18.079616 125.07812 18.451172 C 124.74568 18.803172 124.34433 19.08567 123.875 19.300781 C 123.42522 19.515892 122.9362 19.625 122.4082 19.625 L 114.63477 19.625 L 114.63477 11.734375 z "
       transform="matrix(0.26458333,0,0,0.26458333,0,291.25667)"
       id="text18406-2-05-1-6-6-76-0" />
  </g>
</svg>
