<svg width="178.31" height="21.707" version="1.1" viewBox="0 0 47.177 5.7433" xmlns="http://www.w3.org/2000/svg">
<g transform="translate(0 -291.26)">
<g transform="translate(2926.4 1208.8)" fill="#fff" stroke-width=".05488" aria-label="Choose book">
<path d="m-2926.4-914.71q0-0.49671 0.1707-0.98566 0.1785-0.49671 0.5123-0.88477 0.3337-0.38805 0.8226-0.62865 0.489-0.24835 1.1099-0.24835 0.7373 0 1.2573 0.33372 0.5277 0.33373 0.7761 0.86925l-0.4269 0.26388q-0.1319-0.27164-0.3259-0.45791-0.1863-0.18627-0.4036-0.30268-0.2173-0.11642-0.4502-0.16299-0.2328-0.0543-0.4579-0.0543-0.4967 0-0.877 0.20179-0.3803 0.20178-0.6441 0.52775-0.2562 0.32597-0.3881 0.73731-0.1319 0.40357-0.1319 0.82267 0 0.45791 0.1552 0.87701 0.163 0.4191 0.4346 0.74507 0.2794 0.3182 0.6519 0.51223 0.3803 0.18627 0.8227 0.18627 0.2328 0 0.4734-0.0543 0.2484-0.0621 0.4735-0.18627 0.2328-0.13194 0.4268-0.3182 0.1941-0.19403 0.326-0.46567l0.4501 0.23283q-0.1319 0.31045-0.3725 0.55104-0.2406 0.23284-0.5355 0.39582t-0.6287 0.24835q-0.3259 0.0854-0.6441 0.0854-0.5666 0-1.04-0.24836-0.4734-0.24835-0.8149-0.64417-0.3415-0.40358-0.5356-0.90805-0.1862-0.51223-0.1862-1.04z"/>
<path d="m-2917.4-911.92h-0.5278v-2.2585q0-0.69074-0.2406-1.0322-0.2328-0.34149-0.6907-0.34149-0.2251 0-0.4502 0.0931-0.2173 0.0854-0.4113 0.2406-0.194 0.15522-0.3415 0.36477-0.1397 0.20955-0.2095 0.45791v2.4758h-0.5278v-5.6656h0.5278v2.5379q0.2406-0.4579 0.6674-0.72178 0.4269-0.26388 0.9236-0.26388 0.3492 0 0.5898 0.13194 0.2406 0.12418 0.3958 0.35701 0.1553 0.22507 0.2251 0.55104 0.07 0.31821 0.07 0.70626z"/>
<path d="m-2914.5-911.84q-0.4423 0-0.8071-0.16298-0.3648-0.17075-0.6364-0.45791-0.2639-0.28716-0.4114-0.66745-0.1474-0.3803-0.1474-0.7994 0-0.42686 0.1474-0.80715 0.1553-0.3803 0.4191-0.66746 0.2717-0.28716 0.6364-0.4579 0.3648-0.17075 0.7994-0.17075 0.4347 0 0.7994 0.17075 0.3726 0.17074 0.6364 0.4579 0.2717 0.28716 0.4191 0.66746 0.1553 0.38029 0.1553 0.80715 0 0.4191-0.1475 0.7994-0.1475 0.38029-0.4191 0.66745-0.2639 0.28716-0.6364 0.45791-0.3648 0.16298-0.8072 0.16298zm-1.4668-2.08q0 0.34149 0.1164 0.63641 0.1164 0.28717 0.3104 0.51224 0.2018 0.21731 0.4657 0.34149 0.2717 0.12417 0.5743 0.12417 0.3027 0 0.5666-0.12417 0.2716-0.13194 0.4734-0.34925 0.2018-0.22508 0.3182-0.52t0.1164-0.63641q0-0.33373-0.1164-0.62865-0.1164-0.30268-0.3182-0.51999-0.2018-0.22508-0.4734-0.34925-0.2639-0.13194-0.5666-0.13194-0.3026 0-0.5665 0.13194-0.2639 0.12417-0.4657 0.34925-0.2018 0.22507-0.3182 0.52775-0.1164 0.29492-0.1164 0.63641z"/>
<path d="m-2909.9-911.84q-0.4424 0-0.8072-0.16298-0.3648-0.17075-0.6364-0.45791-0.2639-0.28716-0.4114-0.66745-0.1474-0.3803-0.1474-0.7994 0-0.42686 0.1474-0.80715 0.1553-0.3803 0.4191-0.66746 0.2717-0.28716 0.6365-0.4579 0.3647-0.17075 0.7994-0.17075 0.4346 0 0.7993 0.17075 0.3726 0.17074 0.6365 0.4579 0.2716 0.28716 0.4191 0.66746 0.1552 0.38029 0.1552 0.80715 0 0.4191-0.1475 0.7994-0.1474 0.38029-0.4191 0.66745-0.2639 0.28716-0.6364 0.45791-0.3648 0.16298-0.8071 0.16298zm-1.4669-2.08q0 0.34149 0.1164 0.63641 0.1164 0.28717 0.3105 0.51224 0.2018 0.21731 0.4656 0.34149 0.2717 0.12417 0.5744 0.12417 0.3026 0 0.5665-0.12417 0.2717-0.13194 0.4734-0.34925 0.2018-0.22508 0.3182-0.52 0.1165-0.29492 0.1165-0.63641 0-0.33373-0.1165-0.62865-0.1164-0.30268-0.3182-0.51999-0.2017-0.22508-0.4734-0.34925-0.2639-0.13194-0.5665-0.13194-0.3027 0-0.5666 0.13194-0.2639 0.12417-0.4657 0.34925-0.2018 0.22507-0.3182 0.52775-0.1164 0.29492-0.1164 0.63641z"/>
<path d="m-2905.7-911.84q-0.4735 0-0.9236-0.15522t-0.7761-0.45015l0.2406-0.35701q0.3415 0.2794 0.6907 0.4191 0.357 0.1397 0.7606 0.1397 0.489 0 0.7761-0.19402 0.2949-0.20179 0.2949-0.56657 0-0.17074-0.078-0.2794-0.078-0.11641-0.2328-0.20178-0.1475-0.0854-0.3803-0.14747-0.2251-0.0699-0.5277-0.1397-0.3493-0.0854-0.6054-0.17074-0.2561-0.0854-0.4269-0.19403-0.163-0.10865-0.2483-0.26388-0.078-0.16298-0.078-0.40357 0-0.30269 0.1164-0.53552 0.1242-0.23283 0.3259-0.38029 0.2096-0.15523 0.4812-0.23284 0.2794-0.0776 0.5899-0.0776 0.4656 0 0.8459 0.15522 0.3803 0.14746 0.6132 0.39582l-0.2562 0.31044q-0.225-0.23283-0.551-0.34925-0.3182-0.11641-0.6674-0.11641-0.2096 0-0.3881 0.0466-0.1785 0.0388-0.3182 0.13194-0.1319 0.0931-0.2096 0.2406-0.078 0.1397-0.078 0.33373 0 0.16298 0.054 0.26387 0.054 0.1009 0.1785 0.17851 0.1241 0.0698 0.3104 0.13194 0.194 0.0543 0.4657 0.11641 0.388 0.0931 0.683 0.18627 0.2949 0.0931 0.4889 0.21731 0.2018 0.12418 0.3027 0.30269 0.1009 0.1785 0.1009 0.43462 0 0.5588-0.4269 0.88476-0.4268 0.32597-1.1486 0.32597z"/>
<path d="m-2901.5-911.84q-0.4424 0-0.8149-0.16298-0.3648-0.17075-0.6364-0.45791-0.2717-0.29492-0.4269-0.67521-0.1474-0.3803-0.1474-0.81492 0-0.42686 0.1474-0.7994 0.1552-0.38029 0.4191-0.65969 0.2717-0.28716 0.6442-0.45014 0.3725-0.17075 0.8071-0.17075 0.4424 0 0.8072 0.17075 0.3725 0.16298 0.6364 0.45014t0.4113 0.65969q0.1475 0.37254 0.1475 0.79164 0 0.0621 0 0.12418 0 0.0621-0.01 0.0854h-3.4614q0.023 0.32596 0.1475 0.60536 0.1319 0.27164 0.3337 0.47343t0.4579 0.31821q0.2639 0.10865 0.5588 0.10865 0.194 0 0.388-0.0543 0.1941-0.0543 0.3571-0.14747 0.1629-0.0931 0.2949-0.22507 0.1319-0.1397 0.2018-0.30268l0.4579 0.12418q-0.093 0.22507-0.2639 0.41134-0.1708 0.1785-0.3958 0.3182-0.2251 0.13194-0.4967 0.20179-0.2717 0.0776-0.5666 0.0776zm1.4901-2.3128q-0.023-0.32597-0.1552-0.58984-0.1242-0.27164-0.326-0.46567-0.194-0.19403-0.4579-0.30268-0.2561-0.10866-0.551-0.10866t-0.5588 0.10866q-0.2639 0.10865-0.4657 0.30268-0.194 0.19403-0.3182 0.46567-0.1164 0.27163-0.1397 0.58984z"/>
<path d="m-2894.7-911.84q-0.4812 0-0.8848-0.24059-0.3958-0.2406-0.6209-0.62089v0.78387h-0.4734v-5.6656h0.5277v2.468q0.2717-0.41134 0.652-0.65969 0.3803-0.25612 0.8847-0.25612 0.4269 0 0.7606 0.17851 0.3415 0.1785 0.5744 0.48119 0.2406 0.29492 0.3647 0.67521 0.132 0.37254 0.132 0.76835 0 0.42686-0.1475 0.80716-0.1475 0.38029-0.4036 0.66745-0.2561 0.2794-0.6131 0.45015-0.3492 0.16298-0.7528 0.16298zm-0.1242-0.46567q0.3337 0 0.6054-0.13193 0.2794-0.1397 0.4734-0.36478 0.2018-0.23283 0.3104-0.51999 0.1165-0.29492 0.1165-0.60537 0-0.3182-0.1087-0.61313-0.1009-0.29492-0.2949-0.51999-0.1863-0.23283-0.4579-0.36477-0.2639-0.1397-0.5821-0.1397-0.2406 0-0.4502 0.0854-0.2095 0.0776-0.388 0.21731-0.1785 0.1397-0.3182 0.32597-0.1397 0.1785-0.2329 0.38029v1.2573q0.031 0.20955 0.163 0.39582 0.1397 0.1785 0.326 0.31044 0.194 0.13194 0.4113 0.20955 0.2251 0.0776 0.4269 0.0776z"/>
<path d="m-2890.2-911.84q-0.4424 0-0.8071-0.16298-0.3648-0.17075-0.6364-0.45791-0.2639-0.28716-0.4114-0.66745-0.1475-0.3803-0.1475-0.7994 0-0.42686 0.1475-0.80715 0.1552-0.3803 0.4191-0.66746 0.2717-0.28716 0.6364-0.4579 0.3648-0.17075 0.7994-0.17075t0.7994 0.17075q0.3725 0.17074 0.6364 0.4579 0.2717 0.28716 0.4191 0.66746 0.1552 0.38029 0.1552 0.80715 0 0.4191-0.1474 0.7994-0.1475 0.38029-0.4191 0.66745-0.2639 0.28716-0.6364 0.45791-0.3648 0.16298-0.8072 0.16298zm-1.4668-2.08q0 0.34149 0.1164 0.63641 0.1164 0.28717 0.3104 0.51224 0.2018 0.21731 0.4657 0.34149 0.2716 0.12417 0.5743 0.12417t0.5666-0.12417q0.2716-0.13194 0.4734-0.34925 0.2018-0.22508 0.3182-0.52t0.1164-0.63641q0-0.33373-0.1164-0.62865-0.1164-0.30268-0.3182-0.51999-0.2018-0.22508-0.4734-0.34925-0.2639-0.13194-0.5666-0.13194t-0.5665 0.13194q-0.2639 0.12417-0.4657 0.34925-0.2018 0.22507-0.3182 0.52775-0.1164 0.29492-0.1164 0.63641z"/>
<path d="m-2885.5-911.84q-0.4423 0-0.8071-0.16298-0.3648-0.17075-0.6364-0.45791-0.2639-0.28716-0.4114-0.66745-0.1474-0.3803-0.1474-0.7994 0-0.42686 0.1474-0.80715 0.1553-0.3803 0.4191-0.66746 0.2717-0.28716 0.6364-0.4579 0.3648-0.17075 0.7994-0.17075 0.4347 0 0.7994 0.17075 0.3726 0.17074 0.6364 0.4579 0.2717 0.28716 0.4191 0.66746 0.1553 0.38029 0.1553 0.80715 0 0.4191-0.1475 0.7994-0.1475 0.38029-0.4191 0.66745-0.2639 0.28716-0.6364 0.45791-0.3648 0.16298-0.8072 0.16298zm-1.4668-2.08q0 0.34149 0.1164 0.63641 0.1164 0.28717 0.3104 0.51224 0.2018 0.21731 0.4657 0.34149 0.2717 0.12417 0.5743 0.12417 0.3027 0 0.5666-0.12417 0.2716-0.13194 0.4734-0.34925 0.2018-0.22508 0.3182-0.52t0.1164-0.63641q0-0.33373-0.1164-0.62865-0.1164-0.30268-0.3182-0.51999-0.2018-0.22508-0.4734-0.34925-0.2639-0.13194-0.5666-0.13194-0.3026 0-0.5665 0.13194-0.2639 0.12417-0.4657 0.34925-0.2018 0.22507-0.3182 0.52775-0.1164 0.29492-0.1164 0.63641z"/>
<path d="m-2879.8-911.92-1.4901-2.0722-0.8693 0.80716v1.2651h-0.5277v-5.6656h0.5277v3.8495l2.274-2.2197h0.5977l-1.6532 1.6531 1.7152 2.3827z"/>
</g>
</g>
</svg>
