<?xml version="1.0" encoding="UTF-8" standalone="no"?>
<!-- Created with Inkscape (http://www.inkscape.org/) -->

<svg
   xmlns:dc="http://purl.org/dc/elements/1.1/"
   xmlns:cc="http://creativecommons.org/ns#"
   xmlns:rdf="http://www.w3.org/1999/02/22-rdf-syntax-ns#"
   xmlns:svg="http://www.w3.org/2000/svg"
   xmlns="http://www.w3.org/2000/svg"
   xmlns:sodipodi="http://sodipodi.sourceforge.net/DTD/sodipodi-0.dtd"
   xmlns:inkscape="http://www.inkscape.org/namespaces/inkscape"
   width="222.811"
   height="21.707001"
   viewBox="0 0 58.952076 5.7433107"
   version="1.1"
   id="svg10179"
   inkscape:version="0.92.3 (2405546, 2018-03-11)"
   sodipodi:docname="1b.svg">
  <defs
     id="defs10173" />
  <sodipodi:namedview
     id="base"
     pagecolor="#ffffff"
     bordercolor="#666666"
     borderopacity="1.0"
     inkscape:pageopacity="0.0"
     inkscape:pageshadow="2"
     inkscape:zoom="4"
     inkscape:cx="66.327343"
     inkscape:cy="-1.2471064"
     inkscape:document-units="mm"
     inkscape:current-layer="layer1"
     showgrid="false"
     units="px"
     inkscape:window-width="1853"
     inkscape:window-height="1025"
     inkscape:window-x="1433"
     inkscape:window-y="27"
     inkscape:window-maximized="1" />
  <metadata
     id="metadata10176">
    <rdf:RDF>
      <cc:Work
         rdf:about="">
        <dc:format>image/svg+xml</dc:format>
        <dc:type
           rdf:resource="http://purl.org/dc/dcmitype/StillImage" />
        <dc:title></dc:title>
      </cc:Work>
    </rdf:RDF>
  </metadata>
  <g
     inkscape:label="Layer 1"
     inkscape:groupmode="layer"
     id="layer1"
     transform="translate(0,-291.25667)">
    <path
       style="font-style:normal;font-variant:normal;font-weight:normal;font-stretch:normal;font-size:4.97813368px;line-height:1.5;font-family:Raleway;-inkscape-font-specification:Raleway;letter-spacing:0px;word-spacing:0px;fill:#ffffff;fill-opacity:1;stroke:none;stroke-width:0.20742224"
       d="M 130.28125 0 L 130.28125 21.414062 L 132.27734 21.414062 L 132.27734 16.632812 L 135.5625 13.582031 L 141.19336 21.414062 L 143.36523 21.414062 L 136.88281 12.408203 L 143.13086 6.1601562 L 140.87109 6.1601562 L 132.27734 14.548828 L 132.27734 0 L 130.28125 0 z M 153.3125 0 L 153.3125 2.9335938 L 155.30859 2.9335938 L 155.30859 0 L 153.3125 0 z M 8.1835938 0.43945312 C 7.0884826 0.43945312 6.0909618 0.57778472 5.1914062 0.8515625 C 4.2918507 1.1057847 3.510592 1.4856962 2.8457031 1.9941406 C 2.1808142 2.4830295 1.6625712 3.1103802 1.2910156 3.8730469 C 0.93901562 4.616158 0.76171875 5.4656059 0.76171875 6.4238281 C 0.76171875 7.264717 0.90005034 7.9797396 1.1738281 8.5664062 C 1.4671615 9.1335174 1.8957795 9.6205833 2.4628906 10.03125 C 3.0300017 10.441917 3.7255417 10.784816 4.546875 11.058594 C 5.3682083 11.332372 6.3267639 11.59734 7.421875 11.851562 C 8.4583195 12.086229 9.3662153 12.320021 10.148438 12.554688 C 10.93066 12.789354 11.587234 13.073806 12.115234 13.40625 C 12.643234 13.719139 13.032887 14.09905 13.287109 14.548828 C 13.560887 14.97905 13.699219 15.516776 13.699219 16.162109 C 13.699219 17.374554 13.229682 18.284403 12.291016 18.890625 C 11.371904 19.477292 10.080191 19.771484 8.4179688 19.771484 C 7.616191 19.771484 6.8544149 19.703295 6.1308594 19.566406 C 5.4073038 19.409962 4.7215052 19.203441 4.0761719 18.949219 C 3.4503941 18.675441 2.8737031 18.363719 2.3457031 18.011719 C 1.8372587 17.659719 1.3988993 17.287595 1.0273438 16.896484 L 0 18.568359 C 2.3466667 20.582582 5.1327083 21.589844 8.359375 21.589844 C 9.4544861 21.589844 10.461748 21.482689 11.380859 21.267578 C 12.299971 21.032911 13.092924 20.680271 13.757812 20.210938 C 14.422701 19.741604 14.940944 19.155172 15.3125 18.451172 C 15.684056 17.747172 15.869141 16.915253 15.869141 15.957031 C 15.869141 15.018365 15.703538 14.237106 15.371094 13.611328 C 15.038649 12.98555 14.559372 12.457566 13.933594 12.027344 C 13.307816 11.577566 12.544087 11.205443 11.644531 10.912109 C 10.764531 10.618776 9.7670104 10.35576 8.6523438 10.121094 C 7.6550104 9.9059826 6.7860799 9.6897205 6.0429688 9.4746094 C 5.3194132 9.2594983 4.7232396 9.006224 4.2539062 8.7128906 C 3.7845729 8.4195573 3.4319323 8.076658 3.1972656 7.6855469 C 2.9821545 7.2748802 2.875 6.7566372 2.875 6.1308594 C 2.875 4.9379705 3.2958298 3.9988976 4.1367188 3.3144531 C 4.9776077 2.6104531 6.3160746 2.2597656 8.1542969 2.2597656 C 9.4058525 2.2597656 10.520269 2.4643333 11.498047 2.875 C 12.475825 3.2856667 13.259036 3.8233923 13.845703 4.4882812 L 14.841797 2.8457031 C 13.961797 2.0830364 12.974017 1.4966042 11.878906 1.0859375 C 10.803351 0.65571527 9.5720382 0.43945312 8.1835938 0.43945312 z M 193.19531 0.43945312 C 191.80687 0.43945312 190.51515 0.73364582 189.32227 1.3203125 C 188.12938 1.8874236 187.09289 2.658941 186.21289 3.6367188 C 185.33289 4.6144965 184.6393 5.7406076 184.13086 7.0117188 C 183.64197 8.2828299 183.39648 9.6115555 183.39648 11 C 183.39648 12.329778 183.63223 13.631233 184.10156 14.902344 C 184.5709 16.173455 185.23526 17.297613 186.0957 18.275391 C 186.95615 19.253168 187.98289 20.044168 189.17578 20.650391 C 190.38823 21.256613 191.7189 21.560547 193.16602 21.560547 C 194.26113 21.560547 195.27813 21.38325 196.2168 21.03125 C 197.17502 20.67925 198.05369 20.192184 198.85547 19.566406 L 200.43945 21.414062 L 202.46484 21.414062 L 200 18.509766 C 200.91911 17.531988 201.63218 16.398089 202.14062 15.107422 C 202.66863 13.816755 202.93359 12.456852 202.93359 11.029297 C 202.93359 9.7190746 202.69785 8.4390556 202.22852 7.1875 C 201.75918 5.9163889 201.09482 4.7824896 200.23438 3.7851562 C 199.39349 2.7878229 198.36674 1.9851285 197.1543 1.3789062 C 195.96141 0.75312846 194.64242 0.43945312 193.19531 0.43945312 z M 76.208984 0.5859375 L 76.208984 21.414062 L 86.035156 21.414062 C 86.836934 21.414062 87.588969 21.285472 88.292969 21.03125 C 88.996969 20.757472 89.612625 20.387302 90.140625 19.917969 C 90.668625 19.42908 91.089455 18.86213 91.402344 18.216797 C 91.715233 17.551908 91.873047 16.827144 91.873047 16.044922 C 91.873047 14.773811 91.520406 13.659394 90.816406 12.701172 C 90.131962 11.74295 89.192889 11.088328 88 10.736328 C 88.938667 10.306106 89.673172 9.6612257 90.201172 8.8007812 C 90.729172 7.9207812 90.992188 6.9524844 90.992188 5.8964844 C 90.992187 5.251151 90.875292 4.6160122 90.640625 3.9902344 C 90.425514 3.344901 90.111839 2.7779514 89.701172 2.2890625 C 89.290505 1.780618 88.791745 1.3695295 88.205078 1.0566406 C 87.618411 0.74375173 86.96379 0.5859375 86.240234 0.5859375 L 76.208984 0.5859375 z M 212.42773 0.5859375 L 203.71484 21.414062 L 205.91602 21.414062 L 208.58398 14.902344 L 217.94141 14.902344 L 220.64062 21.414062 L 222.81055 21.414062 L 214.1582 0.5859375 L 212.42773 0.5859375 z M 193.16602 2.2890625 C 194.30024 2.2890625 195.33672 2.5325955 196.27539 3.0214844 C 197.21406 3.5103733 198.02454 4.1552535 198.70898 4.9570312 C 199.39343 5.758809 199.92141 6.6881406 200.29297 7.7441406 C 200.68408 8.7805851 200.88086 9.8657778 200.88086 11 C 200.88086 12.095111 200.69382 13.170562 200.32227 14.226562 C 199.95071 15.263007 199.42273 16.192339 198.73828 17.013672 L 197.06641 15.019531 L 195.04297 15.019531 L 197.65234 18.128906 C 197.02657 18.617795 196.34272 19.007448 195.59961 19.300781 C 194.8565 19.574559 194.04602 19.712891 193.16602 19.712891 C 192.01224 19.712891 190.96601 19.477146 190.02734 19.007812 C 189.08868 18.518924 188.27624 17.874043 187.5918 17.072266 C 186.90735 16.250932 186.37937 15.321601 186.00781 14.285156 C 185.63626 13.229156 185.45117 12.134222 185.45117 11 C 185.45117 9.9244444 185.62652 8.8684757 185.97852 7.8320312 C 186.35007 6.7760312 186.86831 5.8369583 187.5332 5.015625 C 188.19809 4.1942917 189.01053 3.5396701 189.96875 3.0507812 C 190.92697 2.5423368 191.99268 2.2890625 193.16602 2.2890625 z M 78.261719 2.3769531 L 85.595703 2.3769531 C 86.084592 2.3769531 86.532693 2.4841076 86.943359 2.6992188 C 87.354026 2.8947743 87.706667 3.1675312 88 3.5195312 C 88.312889 3.8519757 88.548634 4.2533229 88.705078 4.7226562 C 88.881078 5.1919896 88.96875 5.69075 88.96875 6.21875 C 88.96875 6.7271945 88.881078 7.2162135 88.705078 7.6855469 C 88.529078 8.1353247 88.283592 8.5366719 87.970703 8.8886719 C 87.657814 9.2406719 87.27595 9.5231701 86.826172 9.7382812 C 86.39595 9.9533924 85.926413 10.0625 85.417969 10.0625 L 78.261719 10.0625 L 78.261719 2.3769531 z M 213.27734 2.9921875 L 217.47266 13.289062 L 209.02539 13.289062 L 213.27734 2.9921875 z M 25.679688 5.8671875 C 24.545465 5.8671875 23.508979 6.0717552 22.570312 6.4824219 C 21.631646 6.8930885 20.81921 7.4600382 20.134766 8.1835938 C 19.469877 8.8875938 18.951634 9.7195121 18.580078 10.677734 C 18.208523 11.635957 18.023438 12.65296 18.023438 13.728516 C 18.023438 14.823627 18.208523 15.850372 18.580078 16.808594 C 18.971189 17.766816 19.508915 18.616264 20.193359 19.359375 C 20.877804 20.082931 21.69024 20.661575 22.628906 21.091797 C 23.567573 21.502464 24.594318 21.707031 25.708984 21.707031 C 26.43254 21.707031 27.126127 21.609618 27.791016 21.414062 C 28.47546 21.238062 29.091116 20.982835 29.638672 20.650391 C 30.205783 20.298391 30.694802 19.897043 31.105469 19.447266 C 31.516135 18.977932 31.829811 18.471384 32.044922 17.923828 L 30.078125 17.335938 C 29.960792 17.687938 29.756224 18.021095 29.462891 18.333984 C 29.169557 18.646873 28.816917 18.929372 28.40625 19.183594 C 27.995583 19.41826 27.54553 19.605299 27.056641 19.742188 C 26.587307 19.879076 26.109983 19.947266 25.621094 19.947266 C 24.858427 19.947266 24.133663 19.789451 23.449219 19.476562 C 22.78433 19.144118 22.197898 18.705759 21.689453 18.158203 C 21.181009 17.591092 20.779661 16.924776 20.486328 16.162109 C 20.192995 15.399443 20.046875 14.58896 20.046875 13.728516 C 20.046875 12.848516 20.183253 12.03608 20.457031 11.292969 C 20.750365 10.549858 21.14197 9.9147188 21.630859 9.3867188 C 22.139304 8.8391632 22.725736 8.408592 23.390625 8.0957031 C 24.075069 7.7828142 24.809575 7.6269531 25.591797 7.6269531 C 26.530464 7.6269531 27.379911 7.8510035 28.142578 8.3007812 C 28.9248 8.7310035 29.530715 9.3388715 29.960938 10.121094 L 31.898438 9.5039062 C 31.350882 8.3892396 30.538446 7.5086146 29.462891 6.8632812 C 28.387335 6.1983923 27.126799 5.8671875 25.679688 5.8671875 z M 40.693359 5.8671875 C 38.835582 5.8671875 36.918471 6.5315503 34.943359 7.8613281 L 35.646484 9.1816406 C 36.487373 8.5949739 37.319292 8.1449201 38.140625 7.8320312 C 38.961958 7.5191424 39.7627 7.3632812 40.544922 7.3632812 C 41.894255 7.3632813 42.950224 7.7646285 43.712891 8.5664062 C 44.475557 9.3486285 44.857422 10.414339 44.857422 11.763672 L 44.857422 13.140625 C 44.231644 12.886403 43.518575 12.691576 42.716797 12.554688 C 41.915019 12.417799 41.122066 12.349609 40.339844 12.349609 C 39.401177 12.349609 38.541988 12.466505 37.759766 12.701172 C 36.977543 12.916283 36.301486 13.229958 35.734375 13.640625 C 35.167264 14.051292 34.728905 14.540311 34.416016 15.107422 C 34.103127 15.674533 33.945312 16.290189 33.945312 16.955078 C 33.945313 17.619967 34.07195 18.245365 34.326172 18.832031 C 34.580394 19.399142 34.933035 19.897903 35.382812 20.328125 C 35.852146 20.758347 36.389872 21.101247 36.996094 21.355469 C 37.621872 21.590135 38.295976 21.707031 39.019531 21.707031 C 40.251531 21.707031 41.397125 21.461545 42.453125 20.972656 C 43.528681 20.483767 44.417094 19.780439 45.121094 18.861328 L 45.179688 20.064453 C 45.199243 20.514231 45.347316 20.866872 45.621094 21.121094 C 45.914427 21.375316 46.313821 21.501953 46.822266 21.501953 C 46.998266 21.501953 47.253493 21.472729 47.585938 21.414062 L 47.585938 19.654297 C 47.097049 19.654297 46.851563 19.379587 46.851562 18.832031 L 46.851562 11.939453 C 46.851562 10.042564 46.304096 8.5560243 45.208984 7.4804688 C 44.113873 6.4049132 42.609804 5.8671875 40.693359 5.8671875 z M 59.462891 5.8671875 C 58.094002 5.8671875 56.823724 6.2081337 55.650391 6.8925781 C 54.496613 7.5770226 53.606247 8.4771302 52.980469 9.5917969 L 52.980469 6.1308594 L 51.162109 6.1308594 L 51.162109 21.414062 L 53.15625 21.414062 L 53.15625 12.056641 C 53.33225 11.430863 53.616701 10.854172 54.007812 10.326172 C 54.398924 9.7786163 54.839236 9.3090799 55.328125 8.9179688 C 55.836569 8.5268576 56.384036 8.2229236 56.970703 8.0078125 C 57.55737 7.7927014 58.143802 7.6855469 58.730469 7.6855469 C 59.845135 7.6855469 60.665359 8.0966354 61.193359 8.9179688 C 61.740915 9.7393021 62.015625 11.058286 62.015625 12.876953 L 62.015625 21.414062 L 64.009766 21.414062 L 64.009766 12.466797 C 64.009766 11.469464 63.931835 10.559615 63.775391 9.7382812 C 63.618946 8.9169479 63.365672 8.2233611 63.013672 7.65625 C 62.661672 7.0891389 62.192135 6.6488264 61.605469 6.3359375 C 61.018802 6.0230486 60.30378 5.8671875 59.462891 5.8671875 z M 101.8457 5.8671875 C 100.75059 5.8671875 99.74333 6.0814965 98.824219 6.5117188 C 97.905108 6.941941 97.104366 7.5186319 96.419922 8.2421875 C 95.755033 8.9657431 95.227049 9.8074028 94.835938 10.765625 C 94.464382 11.723847 94.277344 12.740851 94.277344 13.816406 C 94.277344 14.872406 94.464382 15.879668 94.835938 16.837891 C 95.207493 17.796113 95.725736 18.635819 96.390625 19.359375 C 97.075069 20.082931 97.875811 20.661575 98.794922 21.091797 C 99.714033 21.502464 100.73104 21.707031 101.8457 21.707031 C 102.96037 21.707031 103.97737 21.502464 104.89648 21.091797 C 105.83515 20.661575 106.63785 20.082931 107.30273 19.359375 C 107.98718 18.635819 108.51516 17.796113 108.88672 16.837891 C 109.25827 15.879668 109.44336 14.872406 109.44336 13.816406 C 109.44336 12.740851 109.24853 11.723847 108.85742 10.765625 C 108.48587 9.8074028 107.95788 8.9657431 107.27344 8.2421875 C 106.60855 7.5186319 105.80585 6.941941 104.86719 6.5117188 C 103.94808 6.0814965 102.94081 5.8671875 101.8457 5.8671875 z M 119.32031 5.8671875 C 118.2252 5.8671875 117.21794 6.0814965 116.29883 6.5117188 C 115.37972 6.941941 114.57702 7.5186319 113.89258 8.2421875 C 113.22769 8.9657431 112.6997 9.8074028 112.30859 10.765625 C 111.93704 11.723847 111.75195 12.740851 111.75195 13.816406 C 111.75195 14.872406 111.93704 15.879668 112.30859 16.837891 C 112.68015 17.796113 113.19839 18.635819 113.86328 19.359375 C 114.54773 20.082931 115.35042 20.661575 116.26953 21.091797 C 117.18864 21.502464 118.20565 21.707031 119.32031 21.707031 C 120.43498 21.707031 121.45198 21.502464 122.37109 21.091797 C 123.30976 20.661575 124.1105 20.082931 124.77539 19.359375 C 125.45984 18.635819 125.98782 17.796113 126.35938 16.837891 C 126.73093 15.879668 126.91797 14.872406 126.91797 13.816406 C 126.91797 12.740851 126.72119 11.723847 126.33008 10.765625 C 125.95852 9.8074028 125.43054 8.9657431 124.74609 8.2421875 C 124.0812 7.5186319 123.28046 6.941941 122.3418 6.5117188 C 121.42269 6.0814965 120.41542 5.8671875 119.32031 5.8671875 z M 168.03125 5.8671875 C 166.66236 5.8671875 165.39208 6.2081337 164.21875 6.8925781 C 163.06497 7.5770226 162.17461 8.4771302 161.54883 9.5917969 L 161.54883 6.1308594 L 159.73047 6.1308594 L 159.73047 21.414062 L 161.72461 21.414062 L 161.72461 12.056641 C 161.90061 11.430863 162.18506 10.854172 162.57617 10.326172 C 162.96728 9.7786163 163.40564 9.3090799 163.89453 8.9179688 C 164.40298 8.5268576 164.95044 8.2229236 165.53711 8.0078125 C 166.12378 7.7927014 166.71216 7.6855469 167.29883 7.6855469 C 168.41349 7.6855469 169.23372 8.0966354 169.76172 8.9179688 C 170.30927 9.7393021 170.58398 11.058286 170.58398 12.876953 L 170.58398 21.414062 L 172.57812 21.414062 L 172.57812 12.466797 C 172.57812 11.469464 172.50019 10.559615 172.34375 9.7382812 C 172.18731 8.9169479 171.93208 8.2233611 171.58008 7.65625 C 171.22808 7.0891389 170.75854 6.6488264 170.17188 6.3359375 C 169.58521 6.0230486 168.87214 5.8671875 168.03125 5.8671875 z M 153.3125 6.1308594 L 153.3125 21.414062 L 155.30859 21.414062 L 155.30859 6.1308594 L 153.3125 6.1308594 z M 101.8457 7.6269531 C 102.60837 7.6269531 103.32339 7.7925555 103.98828 8.125 C 104.67273 8.4378889 105.2689 8.8782014 105.77734 9.4453125 C 106.28579 9.9928681 106.68518 10.64749 106.97852 11.410156 C 107.27185 12.153267 107.41992 12.94622 107.41992 13.787109 C 107.41992 14.647554 107.27185 15.448295 106.97852 16.191406 C 106.68518 16.934517 106.28579 17.591092 105.77734 18.158203 C 105.2689 18.705759 104.67273 19.144118 103.98828 19.476562 C 103.32339 19.789451 102.60837 19.947266 101.8457 19.947266 C 101.08304 19.947266 100.36023 19.789451 99.675781 19.476562 C 99.010892 19.163674 98.42446 18.735056 97.916016 18.1875 C 97.427127 17.620389 97.035521 16.973556 96.742188 16.25 C 96.448854 15.506889 96.302734 14.706148 96.302734 13.845703 C 96.302734 12.985259 96.448854 12.182564 96.742188 11.439453 C 97.035521 10.676786 97.436868 10.012424 97.945312 9.4453125 C 98.453757 8.8782014 99.040189 8.4378889 99.705078 8.125 C 100.36997 7.7925555 101.08304 7.6269531 101.8457 7.6269531 z M 119.32031 7.6269531 C 120.08298 7.6269531 120.79605 7.7925555 121.46094 8.125 C 122.14538 8.4378889 122.74156 8.8782014 123.25 9.4453125 C 123.75844 9.9928681 124.15979 10.64749 124.45312 11.410156 C 124.74646 12.153267 124.89258 12.94622 124.89258 13.787109 C 124.89258 14.647554 124.74646 15.448295 124.45312 16.191406 C 124.15979 16.934517 123.75844 17.591092 123.25 18.158203 C 122.74156 18.705759 122.14538 19.144118 121.46094 19.476562 C 120.79605 19.789451 120.08298 19.947266 119.32031 19.947266 C 118.55765 19.947266 117.83288 19.789451 117.14844 19.476562 C 116.48355 19.163674 115.89712 18.735056 115.38867 18.1875 C 114.89978 17.620389 114.51013 16.973556 114.2168 16.25 C 113.92346 15.506889 113.77539 14.706148 113.77539 13.845703 C 113.77539 12.985259 113.92346 12.182564 114.2168 11.439453 C 114.51013 10.676786 114.90952 10.012424 115.41797 9.4453125 C 115.92641 8.8782014 116.51285 8.4378889 117.17773 8.125 C 117.84262 7.7925555 118.55765 7.6269531 119.32031 7.6269531 z M 78.261719 11.734375 L 86.240234 11.734375 C 86.748679 11.734375 87.218215 11.851271 87.648438 12.085938 C 88.098215 12.301049 88.48008 12.593288 88.792969 12.964844 C 89.125413 13.316844 89.378687 13.737674 89.554688 14.226562 C 89.730688 14.695896 89.818359 15.184915 89.818359 15.693359 C 89.818359 16.201804 89.720946 16.700564 89.525391 17.189453 C 89.329835 17.658786 89.057078 18.079616 88.705078 18.451172 C 88.372634 18.803172 87.971286 19.08567 87.501953 19.300781 C 87.052175 19.515892 86.563156 19.625 86.035156 19.625 L 78.261719 19.625 L 78.261719 11.734375 z M 40.603516 13.611328 C 41.346627 13.611328 42.071391 13.679517 42.775391 13.816406 C 43.498946 13.953295 44.192533 14.148122 44.857422 14.402344 L 44.857422 16.896484 C 44.857422 17.072484 44.808715 17.267311 44.710938 17.482422 C 44.632715 17.677977 44.506078 17.865016 44.330078 18.041016 C 43.8803 18.686349 43.215938 19.204592 42.335938 19.595703 C 41.475493 19.986814 40.526679 20.181641 39.490234 20.181641 C 38.98179 20.181641 38.502512 20.093969 38.052734 19.917969 C 37.602957 19.741969 37.211351 19.506224 36.878906 19.212891 C 36.566017 18.900002 36.312743 18.539573 36.117188 18.128906 C 35.941187 17.71824 35.851562 17.277927 35.851562 16.808594 C 35.851563 15.850372 36.291875 15.076901 37.171875 14.490234 C 38.051875 13.903568 39.195516 13.611328 40.603516 13.611328 z "
       transform="matrix(0.26458333,0,0,0.26458333,0,291.25667)"
       id="text18406-0-79-2-31-6" />
  </g>
</svg>
