<svg width="20.962" height="11.857" version="1.1" viewBox="0 0 5.5462 3.1372" xmlns="http://www.w3.org/2000/svg">
<g transform="translate(0 -293.86)">
<g transform="translate(-14.07 .42714)">
<g transform="matrix(.99999 0 0 .99999 14.071 -.41988)">
<path transform="matrix(.95885 0 0 .95885 -113.1 147.27)" d="m123.52 152.88c-0.0524 2e-3 -0.10387 0.0248-0.14453 0.0684l-2.3652 2.5352a0.22622 0.22622 0 0 1-0.33203 0l-2.3652-2.5352c-0.0406-0.0436-0.0923-0.0646-0.14453-0.0664-0.0522-2e-3 -0.10426 0.0154-0.14844 0.0566-0.0871 0.0813-0.0909 0.20605-0.01 0.29297l2.666 2.8555c0.0446 0.0478 0.0984 0.0669 0.15821 0.0645a0.22622 0.22622 0 0 1 0.0195 0c0.0597 2e-3 0.11361-0.0167 0.1582-0.0645l2.666-2.8555c0.0811-0.0869 0.0774-0.21163-0.01-0.29297-0.0434-0.0405-0.0961-0.0605-0.14844-0.0586z" fill="#788496" style="paint-order:markers stroke fill"/>
</g>
</g>
</g>
</svg>
