<svg width="153.36" height="46.497" version="1.1" viewBox="0 0 40.576 12.302" xmlns="http://www.w3.org/2000/svg">
<g transform="translate(0 -284.7)">
<g transform="translate(-13.337 130.53)">
<g fill="#d4ff2a" stroke-width=".32784" aria-label="simile">
<path d="m20.272 159.8q0.0083 0.22325-0.14883 0.38861-0.14883 0.1571-0.37207 0.16537-0.22324 0-0.38034-0.14883-0.58704-0.56224-1.3973-0.87643-0.80202-0.32247-1.4552-0.33073-1.7363-0.0165-2.0505 0.92604-0.23978 0.71933 0.39688 1.2981 0.63665 0.57878 2.3234 0.44648 1.3064-0.0413 1.9926 0.3142 0.68626 0.35553 1.0087 1.0087 0.33073 0.65319 0.1819 1.2981-0.27285 1.2072-1.4966 1.7611-0.94258 0.42995-1.9844 0.339-1.9678-0.19017-3.2577-1.3229-0.16536-0.14056-0.1819-0.36381-0.0083-0.23151 0.13229-0.39687 0.14883-0.16537 0.37207-0.17363 0.22324-0.0165 0.38861 0.12402 1.0335 0.90124 2.4887 1.0418 1.4635 0.14056 2.1828-0.63666 0.5209-0.57051 0.21497-1.1989-0.38861-0.77721-1.8438-0.71107-1.4469 0.0579-2.1084-0.11575-0.65319-0.1819-1.1576-0.63666-0.50436-0.46302-0.69453-1.1079-0.19017-0.65319 0.02481-1.3064 0.21497-0.65319 0.71934-1.0335 0.8599-0.64492 2.034-0.62838 2.3564 0.0248 3.9026 1.5048 0.1571 0.14883 0.16536 0.37207z"/>
<path d="m23.249 155.05q0.32246 8e-3 0.5457 0.19844 0.49609 0.42995 0.35553 0.97565-0.13229 0.53743-0.67799 0.7276-0.90951 0.45476-1.2816-0.22324-0.28939-0.53743 0.11576-1.1162 0.40514-0.57878 0.94258-0.56224zm-0.41341 11.344q-0.21497 0.0661-0.41341-0.0413-0.19017-0.10749-0.25632-0.31419-0.05788-0.20671 0.0083-0.38034 0.16536-0.37207 0.2067-2.7781 0.04961-2.406 0.0248-4.3491 0-0.22325 0.14883-0.38034 0.1571-0.16537 0.37207-0.16537 0.22324-8e-3 0.38034 0.14883 0.16536 0.1571 0.16536 0.38034 0.03307 1.9596 0.0083 3.2742-0.02481 1.3146-0.03307 1.8686-0.0083 0.55397-0.04134 1.3146-0.04961 1.265-0.57051 1.4221z"/>
<path d="m27.433 159.74q0.83509-1.6619 2.1993-1.5131 1.0831 0.11576 1.9348 1.3725 0.27285 0.40514 0.47956 0.87643 0.47129-1.4139 1.3312-2.0257 0.5209-0.37207 1.1493-0.38034 1.0831-8e-3 1.9844 1.0914 0.90124 1.0997 1.0418 3.0179 0.14056 1.91-0.89297 4.0018-0.09922 0.19843-0.31419 0.26458-0.21497 0.0744-0.41341-0.0248-0.19017-0.0992-0.26458-0.30593-0.07441-0.21497 0.0248-0.41341 0.9095-1.8273 0.79375-3.423-0.11576-1.5958-0.84336-2.4887-0.52917-0.64493-1.1327-0.63666-0.60358 0-1.0501 0.77722-0.43822 0.76894-0.57878 1.5462-0.14056 0.77722-0.19017 1.3395 0.04134 0.30592 0.09922 1.0583 0.06615 0.74414-0.09095 2.034-0.02481 0.21497-0.20671 0.35553-0.17363 0.14056-0.38034 0.11575-0.20671-0.0248-0.339-0.17363-0.13229-0.14883-0.14883-0.32246-0.11576-1.7032-0.01654-3.0427-0.23978-1.5958-0.86816-2.5383-1.2898-1.9182-2.249-0.25632-0.50436 0.8847-0.71107 2.4557 0.04134 1.695-0.05788 2.836l-0.04961 0.57051q-0.01654 0.21497-0.19017 0.3638-0.17363 0.14056-0.38861 0.12402-0.20671-0.0165-0.34727-0.17363-0.14056-0.1571-0.14883-0.339-0.07441-1.9596 0.10749-3.4396-0.07441-2.5632-0.75241-3.4148-0.14056-0.17363-0.11576-0.39688 0.03307-0.22324 0.19844-0.35553 0.17363-0.14056 0.39688-0.11576 0.22324 0.0248 0.3638 0.19844 0.39688 0.50436 0.63665 1.3808z"/>
<path d="m40.414 155.05q0.32246 8e-3 0.5457 0.19844 0.49609 0.42995 0.35553 0.97565-0.13229 0.53743-0.678 0.7276-0.9095 0.45476-1.2816-0.22324-0.28939-0.53743 0.11576-1.1162t0.94258-0.56224zm-0.41341 11.344q-0.21497 0.0661-0.41341-0.0413-0.19017-0.10749-0.25632-0.31419-0.05788-0.20671 0.0083-0.38034 0.16536-0.37207 0.20671-2.7781 0.04961-2.406 0.02481-4.3491 0-0.22325 0.14883-0.38034 0.1571-0.16537 0.37207-0.16537 0.22324-8e-3 0.38034 0.14883 0.16536 0.1571 0.16536 0.38034 0.03307 1.9596 0.0083 3.2742-0.02481 1.3146-0.03307 1.8686-0.0083 0.55397-0.04134 1.3146-0.04961 1.265-0.57051 1.4221z"/>
<path d="m43.465 154.31q0.16536-0.14883 0.38034-0.14056 0.22324 8e-3 0.37207 0.17363 0.1571 0.16537 0.14056 0.38861-0.41341 9.8475-0.23151 11.071 0.03307 0.21497-0.09922 0.39687-0.13229 0.1819-0.35553 0.21498-0.21497 0.0331-0.39688-0.0992-0.17363-0.14056-0.2067-0.35554-0.19844-1.3229 0.22324-11.278 0.0083-0.22324 0.17363-0.37207z"/>
<path d="m47.185 163.52q0.11576 0.42168 0.38034 0.78548 0.66146 0.95085 2.0919 1.0501 1.4387 0.091 3.4644-0.91777 0.19844-0.0909 0.41341-0.0165 0.21497 0.0661 0.30592 0.26459 0.09922 0.19843 0.02481 0.41341-0.06615 0.2067-0.26458 0.30592-2.2903 1.1328-4.1258 1.0087-1.8273-0.12403-2.7947-1.4883-0.81856-1.1658-0.63665-2.7202 0.1819-1.5544 1.3146-2.6872 1.4635-1.4552 3.8282-1.4552 1.1989 0 1.9513 0.57877 0.87643 0.678 0.76068 1.7611-0.10749 1.0831-1.3312 1.91-1.8025 1.2237-5.2503 1.2237-0.06615 0-0.13229-0.0165zm-0.09095-1.0087q0.10749-0.0496 0.22324-0.0496 3.1171 0 4.655-1.0418 0.80202-0.54571 0.86816-1.1658 0.04134-0.44649-0.39688-0.77722-0.42995-0.33899-1.2485-0.33899-1.9348 0-3.0758 1.141-0.92604 0.92604-1.0253 2.2324z"/>
</g>
</g>
</g>
</svg>
