<svg width="13.035" height="13.035" version="1.1" viewBox="0 0 3.4488 3.4488" xmlns="http://www.w3.org/2000/svg">
<g transform="translate(0 -293.55)">
<path d="m3.3277 293.67c-0.1615-0.16151-0.4215-0.1614-0.5829 0l-1.0204 1.0204-1.0204-1.0204c-0.1614-0.16151-0.4213-0.16151-0.5828 0-0.1615 0.1615-0.1615 0.4213 0 0.5828l1.0204 1.0205-1.0204 1.0204c-0.1615 0.1614-0.1615 0.4213 0 0.5828 0.1615 0.16149 0.4214 0.16149 0.5828 0l1.0204-1.0204 1.0205 1.0204c0.1614 0.16149 0.4213 0.16149 0.5828 0 0.1615-0.1615 0.1615-0.4214 0-0.5828l-1.0204-1.0204 1.0204-1.0204c0.1615-0.1615 0.1615-0.4214 0-0.5829z" fill="#440045" style="paint-order:markers stroke fill"/>
</g>
</svg>
