<svg width="44.817" height="50.491" version="1.1" viewBox="0 0 11.858 13.359" xmlns="http://www.w3.org/2000/svg">
<g transform="translate(0 -283.64)">
<g transform="translate(-9.8554 -5.5607)">
<g transform="matrix(.99997 0 0 .99997 9.8555 5.567)">
<path d="m10.731 297c0.3876-0.028 0.7539-0.24121 0.9635-0.60441 0.3355-0.58109 0.1384-1.319-0.4427-1.6545l-7.6538-4.4177 7.6538-4.4189c0.581-0.3354 0.7782-1.0736 0.4427-1.6545-0.3354-0.58109-1.0725-0.7793-1.6536-0.44379l-9.4401 5.4507c-0.3952 0.2281-0.6071 0.64199-0.6006 1.0665-0.01 0.4241 0.2058 0.83741 0.6006 1.0653l9.4401 5.4506c0.2179 0.12659 0.4576 0.17689 0.6901 0.1601z" fill="#440045" style="paint-order:markers stroke fill"/>
</g>
</g>
</g>
</svg>
