<svg width="14.979" height="14.979" version="1.1" viewBox="0 0 3.9632 3.9632" xmlns="http://www.w3.org/2000/svg">
<g transform="translate(0 -293.04)">
<path d="m0.39778 293.43a1.3585 1.3585 0 0 0 0 1.9212 1.3585 1.3585 0 0 0 1.7297 0.1577l1.4138 1.4138c0.097 0.0968 0.2525 0.0968 0.3493 0 0.097-0.0968 0.097-0.25246 0-0.34923l-1.4139-1.4138a1.3585 1.3585 0 0 0-0.1576-1.7297 1.3585 1.3585 0 0 0-1.9213 0zm0.3492 0.34921a0.8645 0.8645 0 0 1 1.2228 0 0.8645 0.8645 0 0 1-5e-4 1.2223 0.8645 0.8645 0 0 1-1.2223 5e-4 0.8645 0.8645 0 0 1 5e-8 -1.2228z" fill="#440045" style="paint-order:markers stroke fill"/>
</g>
</svg>
