<?xml version="1.0" encoding="UTF-8" standalone="no"?>
<!-- Created with Inkscape (http://www.inkscape.org/) -->

<svg
   xmlns:dc="http://purl.org/dc/elements/1.1/"
   xmlns:cc="http://creativecommons.org/ns#"
   xmlns:rdf="http://www.w3.org/1999/02/22-rdf-syntax-ns#"
   xmlns:svg="http://www.w3.org/2000/svg"
   xmlns="http://www.w3.org/2000/svg"
   xmlns:sodipodi="http://sodipodi.sourceforge.net/DTD/sodipodi-0.dtd"
   xmlns:inkscape="http://www.inkscape.org/namespaces/inkscape"
   width="200.961"
   height="21.267"
   viewBox="0 0 53.170929 5.6268939"
   version="1.1"
   id="svg10179"
   inkscape:version="0.92.3 (2405546, 2018-03-11)"
   sodipodi:docname="5.svg">
  <defs
     id="defs10173" />
  <sodipodi:namedview
     id="base"
     pagecolor="#ffffff"
     bordercolor="#666666"
     borderopacity="1.0"
     inkscape:pageopacity="0.0"
     inkscape:pageshadow="2"
     inkscape:zoom="4"
     inkscape:cx="66.327343"
     inkscape:cy="-1.2471064"
     inkscape:document-units="mm"
     inkscape:current-layer="layer1"
     showgrid="false"
     units="px"
     inkscape:window-width="1853"
     inkscape:window-height="1025"
     inkscape:window-x="1433"
     inkscape:window-y="27"
     inkscape:window-maximized="1" />
  <metadata
     id="metadata10176">
    <rdf:RDF>
      <cc:Work
         rdf:about="">
        <dc:format>image/svg+xml</dc:format>
        <dc:type
           rdf:resource="http://purl.org/dc/dcmitype/StillImage" />
        <dc:title></dc:title>
      </cc:Work>
    </rdf:RDF>
  </metadata>
  <g
     inkscape:label="Layer 1"
     inkscape:groupmode="layer"
     id="layer1"
     transform="translate(0,-291.37309)">
    <path
       style="font-style:normal;font-variant:normal;font-weight:normal;font-stretch:normal;font-size:4.97813368px;line-height:1.5;font-family:Raleway;-inkscape-font-specification:Raleway;letter-spacing:0px;word-spacing:0px;fill:#d4ff2a;fill-opacity:1;stroke:none;stroke-width:0.20742224"
       d="M 9.6210938 0 C 8.2326493 0 6.9526302 0.2941927 5.7792969 0.88085938 C 4.6059635 1.4479705 3.5889601 2.2194878 2.7285156 3.1972656 C 1.8680712 4.1554879 1.1920139 5.2699045 0.703125 6.5410156 C 0.23379166 7.8121268 2.3581397e-17 9.1428055 0 10.53125 C -7.4014868e-17 11.861028 0.2454861 13.160529 0.734375 14.431641 C 1.2232639 15.683196 1.897368 16.807354 2.7578125 17.804688 C 3.6378125 18.802021 4.6645573 19.604715 5.8378906 20.210938 C 7.0307795 20.81716 8.3302812 21.121094 9.7382812 21.121094 C 12.260948 21.121094 14.489781 20.053431 16.425781 17.921875 L 16.425781 20.972656 L 18.158203 20.972656 L 18.158203 10.736328 L 11.792969 10.736328 L 11.792969 12.320312 L 16.425781 12.320312 L 16.425781 15.78125 C 15.428448 16.993694 14.382221 17.884061 13.287109 18.451172 C 12.211554 18.998727 11.077655 19.271484 9.8847656 19.271484 C 8.7700989 19.271484 7.7336129 19.037693 6.7753906 18.568359 C 5.8367239 18.099026 5.0165 17.473628 4.3125 16.691406 C 3.6085 15.889628 3.0512917 14.960297 2.640625 13.904297 C 2.2495139 12.848297 2.0527344 11.73388 2.0527344 10.560547 C 2.0527344 9.4458802 2.2300312 8.3704288 2.5820312 7.3339844 C 2.9340313 6.2779844 3.4327917 5.3486528 4.078125 4.546875 C 4.7430139 3.7255417 5.5340139 3.0709201 6.453125 2.5820312 C 7.3917917 2.0931424 8.4380191 1.8476562 9.5917969 1.8476562 C 10.980241 1.8476562 12.223248 2.1515903 13.318359 2.7578125 C 14.413471 3.3640347 15.301884 4.3128489 15.986328 5.6035156 L 17.570312 4.546875 C 17.237868 3.8819861 16.82678 3.2760712 16.337891 2.7285156 C 15.868557 2.1614045 15.301608 1.6821267 14.636719 1.2910156 C 13.991385 0.88034895 13.249092 0.56667362 12.408203 0.3515625 C 11.567314 0.11689583 10.637983 0 9.6210938 0 z M 134.18164 0.14648438 L 134.18164 20.972656 L 136.23438 20.972656 L 136.23438 0.14648438 L 134.18164 0.14648438 z M 100.21289 0.52734375 L 100.21289 5.6914062 L 98.099609 5.6914062 L 98.099609 7.2753906 L 100.21289 7.2753906 L 100.21289 18.216797 C 100.21289 18.705686 100.30056 19.136257 100.47656 19.507812 C 100.65256 19.879368 100.88635 20.19109 101.17969 20.445312 C 101.47302 20.679979 101.81592 20.855323 102.20703 20.972656 C 102.59814 21.08999 103.00923 21.150391 103.43945 21.150391 C 103.85012 21.150391 104.24173 21.109472 104.61328 21.03125 C 104.98484 20.953028 105.31604 20.865356 105.60938 20.767578 C 105.90271 20.6698 106.15794 20.572387 106.37305 20.474609 C 106.60771 20.376832 106.78306 20.298901 106.90039 20.240234 L 106.37305 18.626953 C 106.25571 18.705175 105.981 18.841554 105.55078 19.037109 C 105.12056 19.213109 104.6218 19.300781 104.05469 19.300781 C 103.58535 19.300781 103.16452 19.174144 102.79297 18.919922 C 102.44097 18.646144 102.24614 18.225314 102.20703 17.658203 L 102.20703 7.2753906 L 105.72656 7.2753906 L 105.72656 5.6914062 L 102.20703 5.6914062 L 102.20703 0.52734375 L 100.21289 0.52734375 z M 28.564453 5.4277344 C 27.469342 5.4277344 26.452339 5.6420434 25.513672 6.0722656 C 24.575005 6.4829323 23.764523 7.0498819 23.080078 7.7734375 C 22.415189 8.4774375 21.887205 9.3093559 21.496094 10.267578 C 21.124538 11.206245 20.9375 12.213507 20.9375 13.289062 C 20.9375 14.384174 21.124538 15.410918 21.496094 16.369141 C 21.887205 17.327363 22.424931 18.176811 23.109375 18.919922 C 23.793819 19.643477 24.594561 20.220168 25.513672 20.650391 C 26.452339 21.061057 27.479083 21.267578 28.59375 21.267578 C 29.336861 21.267578 30.051884 21.168212 30.736328 20.972656 C 31.420773 20.796656 32.04617 20.543382 32.613281 20.210938 C 33.180392 19.858937 33.679153 19.45759 34.109375 19.007812 C 34.539597 18.538479 34.870802 18.020236 35.105469 17.453125 L 33.375 16.984375 C 33.199 17.395042 32.945726 17.776906 32.613281 18.128906 C 32.280837 18.461351 31.908714 18.743849 31.498047 18.978516 C 31.08738 19.213182 30.637326 19.40022 30.148438 19.537109 C 29.659549 19.673998 29.17053 19.742188 28.681641 19.742188 C 27.938529 19.742188 27.235201 19.603856 26.570312 19.330078 C 25.924979 19.036745 25.348288 18.637351 24.839844 18.128906 C 24.331399 17.620462 23.910569 17.022335 23.578125 16.337891 C 23.265236 15.633891 23.080151 14.872115 23.021484 14.050781 L 36.103516 14.050781 C 36.123071 13.992115 36.132812 13.88496 36.132812 13.728516 L 36.132812 13.259766 C 36.132812 12.203766 35.947727 11.206245 35.576172 10.267578 C 35.204616 9.3289114 34.686373 8.4969931 34.021484 7.7734375 C 33.356595 7.0498819 32.553901 6.4829323 31.615234 6.0722656 C 30.696123 5.6420434 29.67912 5.4277344 28.564453 5.4277344 z M 47.541016 5.4277344 C 46.172127 5.4277344 44.899896 5.7686805 43.726562 6.453125 C 42.572785 7.1375695 41.682418 8.0376771 41.056641 9.1523438 L 41.056641 5.6914062 L 39.238281 5.6914062 L 39.238281 20.972656 L 41.234375 20.972656 L 41.234375 11.615234 C 41.410375 10.989457 41.692873 10.412766 42.083984 9.8847656 C 42.475095 9.3372101 42.915408 8.8676736 43.404297 8.4765625 C 43.912741 8.0854514 44.460208 7.7834705 45.046875 7.5683594 C 45.633542 7.3532483 46.219974 7.2460938 46.806641 7.2460938 C 47.921307 7.2460938 48.743484 7.6552292 49.271484 8.4765625 C 49.81904 9.2978958 50.091797 10.618833 50.091797 12.4375 L 50.091797 20.972656 L 52.087891 20.972656 L 52.087891 12.027344 C 52.087891 11.03001 52.008007 10.120161 51.851562 9.2988281 C 51.695118 8.4774948 51.441844 7.783908 51.089844 7.2167969 C 50.737844 6.6496858 50.268307 6.2093733 49.681641 5.8964844 C 49.094974 5.5835955 48.381905 5.4277344 47.541016 5.4277344 z M 62.939453 5.4277344 C 61.844342 5.4277344 60.827339 5.6420434 59.888672 6.0722656 C 58.950005 6.4829323 58.139523 7.0498819 57.455078 7.7734375 C 56.790189 8.4774375 56.262205 9.3093559 55.871094 10.267578 C 55.499538 11.206245 55.3125 12.213507 55.3125 13.289062 C 55.3125 14.384174 55.499538 15.410918 55.871094 16.369141 C 56.262205 17.327363 56.799931 18.176811 57.484375 18.919922 C 58.168819 19.643477 58.969561 20.220168 59.888672 20.650391 C 60.827339 21.061057 61.854083 21.267578 62.96875 21.267578 C 63.711861 21.267578 64.426884 21.168212 65.111328 20.972656 C 65.795773 20.796656 66.42117 20.543382 66.988281 20.210938 C 67.555392 19.858937 68.054153 19.45759 68.484375 19.007812 C 68.914597 18.538479 69.245802 18.020236 69.480469 17.453125 L 67.75 16.984375 C 67.574 17.395042 67.320726 17.776906 66.988281 18.128906 C 66.655837 18.461351 66.283714 18.743849 65.873047 18.978516 C 65.46238 19.213182 65.012326 19.40022 64.523438 19.537109 C 64.034549 19.673998 63.54553 19.742188 63.056641 19.742188 C 62.313529 19.742188 61.610201 19.603856 60.945312 19.330078 C 60.299979 19.036745 59.723288 18.637351 59.214844 18.128906 C 58.706399 17.620462 58.285569 17.022335 57.953125 16.337891 C 57.640236 15.633891 57.455151 14.872115 57.396484 14.050781 L 70.478516 14.050781 C 70.498071 13.992115 70.507812 13.88496 70.507812 13.728516 L 70.507812 13.259766 C 70.507812 12.203766 70.322727 11.206245 69.951172 10.267578 C 69.579616 9.3289114 69.061373 8.4969931 68.396484 7.7734375 C 67.731595 7.0498819 66.928901 6.4829323 65.990234 6.0722656 C 65.071123 5.6420434 64.05412 5.4277344 62.939453 5.4277344 z M 89.212891 5.4277344 C 87.355113 5.4277344 85.438002 6.0920972 83.462891 7.421875 L 84.166016 8.7421875 C 85.006905 8.1555208 85.838823 7.705467 86.660156 7.3925781 C 87.48149 7.0796892 88.282231 6.921875 89.064453 6.921875 C 90.413786 6.921875 91.469755 7.3232222 92.232422 8.125 C 92.995089 8.9072222 93.376953 9.9729323 93.376953 11.322266 L 93.376953 12.701172 C 92.751175 12.44695 92.038106 12.252123 91.236328 12.115234 C 90.43455 11.978345 89.641597 11.910156 88.859375 11.910156 C 87.920708 11.910156 87.061519 12.027052 86.279297 12.261719 C 85.497075 12.47683 84.821017 12.788552 84.253906 13.199219 C 83.686795 13.609885 83.248436 14.098905 82.935547 14.666016 C 82.622658 15.233127 82.464844 15.850736 82.464844 16.515625 C 82.464844 17.180514 82.591481 17.805911 82.845703 18.392578 C 83.099925 18.959689 83.452566 19.45845 83.902344 19.888672 C 84.371677 20.318894 84.909403 20.65984 85.515625 20.914062 C 86.141403 21.148729 86.815507 21.267578 87.539062 21.267578 C 88.771063 21.267578 89.916656 21.022092 90.972656 20.533203 C 92.048212 20.044314 92.936625 19.340986 93.640625 18.421875 L 93.699219 19.625 C 93.718774 20.074778 93.866847 20.425465 94.140625 20.679688 C 94.433958 20.93391 94.833352 21.060547 95.341797 21.060547 C 95.517797 21.060547 95.773024 21.031323 96.105469 20.972656 L 96.105469 19.212891 C 95.61658 19.212891 95.371094 18.940134 95.371094 18.392578 L 95.371094 11.498047 C 95.371094 9.6011579 94.823627 8.1165712 93.728516 7.0410156 C 92.633404 5.96546 91.129335 5.4277344 89.212891 5.4277344 z M 115.5918 5.4277344 C 114.49669 5.4277344 113.47968 5.6420434 112.54102 6.0722656 C 111.60235 6.4829323 110.78991 7.0498819 110.10547 7.7734375 C 109.44058 8.4774375 108.9126 9.3093559 108.52148 10.267578 C 108.14993 11.206245 107.96484 12.213507 107.96484 13.289062 C 107.96484 14.384174 108.14993 15.410918 108.52148 16.369141 C 108.9126 17.327363 109.45032 18.176811 110.13477 18.919922 C 110.81921 19.643477 111.6219 20.220168 112.54102 20.650391 C 113.47968 21.061057 114.50643 21.267578 115.62109 21.267578 C 116.3642 21.267578 117.07727 21.168212 117.76172 20.972656 C 118.44616 20.796656 119.07156 20.543382 119.63867 20.210938 C 120.20578 19.858937 120.70454 19.45759 121.13477 19.007812 C 121.56499 18.538479 121.89815 18.020236 122.13281 17.453125 L 120.40234 16.984375 C 120.22634 17.395042 119.97112 17.776906 119.63867 18.128906 C 119.30623 18.461351 118.9341 18.743849 118.52344 18.978516 C 118.11277 19.213182 117.66467 19.40022 117.17578 19.537109 C 116.68689 19.673998 116.19787 19.742188 115.70898 19.742188 C 114.96587 19.742188 114.26059 19.603856 113.5957 19.330078 C 112.95037 19.036745 112.37368 18.637351 111.86523 18.128906 C 111.35679 17.620462 110.93596 17.022335 110.60352 16.337891 C 110.29063 15.633891 110.10554 14.872115 110.04688 14.050781 L 123.12891 14.050781 C 123.14846 13.992115 123.1582 13.88496 123.1582 13.728516 L 123.1582 13.259766 C 123.1582 12.203766 122.97312 11.206245 122.60156 10.267578 C 122.23001 9.3289114 121.71176 8.4969931 121.04688 7.7734375 C 120.38199 7.0498819 119.57929 6.4829323 118.64062 6.0722656 C 117.72151 5.6420434 116.70646 5.4277344 115.5918 5.4277344 z M 145.94922 5.4277344 C 145.167 5.4277344 144.42275 5.5251476 143.71875 5.7207031 C 143.03431 5.9162587 142.42839 6.2084983 141.90039 6.5996094 C 141.39195 6.9711649 140.98281 7.4504427 140.66992 8.0371094 C 140.37659 8.6237761 140.22852 9.2978802 140.22852 10.060547 C 140.22852 10.666769 140.32593 11.175271 140.52148 11.585938 C 140.7366 11.977049 141.05027 12.310207 141.46094 12.583984 C 141.89116 12.857762 142.42889 13.103248 143.07422 13.318359 C 143.71955 13.53347 144.48328 13.74778 145.36328 13.962891 C 146.12595 14.138891 146.79031 14.314234 147.35742 14.490234 C 147.94409 14.646679 148.42337 14.833717 148.79492 15.048828 C 149.18603 15.263939 149.47827 15.517214 149.67383 15.810547 C 149.86938 16.084325 149.9668 16.436965 149.9668 16.867188 C 149.9668 17.786299 149.59663 18.499368 148.85352 19.007812 C 148.12996 19.496701 147.15192 19.742188 145.91992 19.742188 C 144.90303 19.742188 143.94448 19.564891 143.04492 19.212891 C 142.16492 18.860891 141.29404 18.332906 140.43359 17.628906 L 139.52539 18.978516 C 140.34672 19.721627 141.32476 20.288576 142.45898 20.679688 C 143.59321 21.070799 144.75633 21.267578 145.94922 21.267578 C 147.76789 21.267578 149.21546 20.85649 150.29102 20.035156 C 151.36657 19.213823 151.9043 18.099406 151.9043 16.691406 C 151.9043 16.046073 151.77571 15.498606 151.52148 15.048828 C 151.26726 14.59905 150.88735 14.217186 150.37891 13.904297 C 149.89002 13.591408 149.27436 13.316698 148.53125 13.082031 C 147.78814 12.847365 146.927 12.613573 145.94922 12.378906 C 145.26477 12.222462 144.67834 12.076342 144.18945 11.939453 C 143.72012 11.783009 143.32851 11.615453 143.01562 11.439453 C 142.70274 11.243898 142.47869 11.019847 142.3418 10.765625 C 142.20491 10.511403 142.13477 10.178245 142.13477 9.7675781 C 142.13477 9.2786892 142.23413 8.8598125 142.42969 8.5078125 C 142.62524 8.1362569 142.88826 7.8323229 143.2207 7.5976562 C 143.5727 7.3629896 143.97405 7.1973872 144.42383 7.0996094 C 144.87361 6.982276 145.36262 6.921875 145.89062 6.921875 C 146.77063 6.921875 147.61033 7.0699479 148.41211 7.3632812 C 149.23344 7.6566146 149.92898 8.0969271 150.49609 8.6835938 L 151.46289 7.5097656 C 150.87622 6.8839878 150.10471 6.3852274 149.14648 6.0136719 C 148.18826 5.6225608 147.12255 5.4277344 145.94922 5.4277344 z M 160.21484 5.4277344 C 159.43262 5.4277344 158.68838 5.5251476 157.98438 5.7207031 C 157.29993 5.9162587 156.69402 6.2084983 156.16602 6.5996094 C 155.65757 6.9711649 155.24844 7.4504427 154.93555 8.0371094 C 154.64221 8.6237761 154.49414 9.2978802 154.49414 10.060547 C 154.49414 10.666769 154.59155 11.175271 154.78711 11.585938 C 155.00222 11.977049 155.3159 12.310207 155.72656 12.583984 C 156.15678 12.857762 156.69451 13.103248 157.33984 13.318359 C 157.98518 13.53347 158.74891 13.74778 159.62891 13.962891 C 160.39157 14.138891 161.05594 14.314234 161.62305 14.490234 C 162.20971 14.646679 162.68899 14.833717 163.06055 15.048828 C 163.45166 15.263939 163.7439 15.517214 163.93945 15.810547 C 164.13501 16.084325 164.23242 16.436965 164.23242 16.867188 C 164.23242 17.786299 163.86225 18.499368 163.11914 19.007812 C 162.39559 19.496701 161.41755 19.742188 160.18555 19.742188 C 159.16866 19.742188 158.2101 19.564891 157.31055 19.212891 C 156.43055 18.860891 155.55966 18.332906 154.69922 17.628906 L 153.79102 18.978516 C 154.61235 19.721627 155.59039 20.288576 156.72461 20.679688 C 157.85883 21.070799 159.02195 21.267578 160.21484 21.267578 C 162.03351 21.267578 163.48109 20.85649 164.55664 20.035156 C 165.6322 19.213823 166.16992 18.099406 166.16992 16.691406 C 166.16992 16.046073 166.04133 15.498606 165.78711 15.048828 C 165.53289 14.59905 165.15298 14.217186 164.64453 13.904297 C 164.15564 13.591408 163.53999 13.316698 162.79688 13.082031 C 162.05376 12.847365 161.19262 12.613573 160.21484 12.378906 C 159.5304 12.222462 158.94397 12.076342 158.45508 11.939453 C 157.98574 11.783009 157.59414 11.615453 157.28125 11.439453 C 156.96836 11.243898 156.74431 11.019847 156.60742 10.765625 C 156.47053 10.511403 156.40039 10.178245 156.40039 9.7675781 C 156.40039 9.2786892 156.49976 8.8598125 156.69531 8.5078125 C 156.89087 8.1362569 157.15388 7.8323229 157.48633 7.5976562 C 157.83833 7.3629896 158.23968 7.1973872 158.68945 7.0996094 C 159.13923 6.982276 159.62825 6.921875 160.15625 6.921875 C 161.03625 6.921875 161.87596 7.0699479 162.67773 7.3632812 C 163.49907 7.6566146 164.19461 8.0969271 164.76172 8.6835938 L 165.72852 7.5097656 C 165.14185 6.8839878 164.37033 6.3852274 163.41211 6.0136719 C 162.45389 5.6225608 161.38818 5.4277344 160.21484 5.4277344 z M 193.39258 5.4277344 C 192.29747 5.4277344 191.28046 5.6420434 190.3418 6.0722656 C 189.40313 6.4829323 188.59265 7.0498819 187.9082 7.7734375 C 187.24331 8.4774375 186.71533 9.3093559 186.32422 10.267578 C 185.95266 11.206245 185.76562 12.213507 185.76562 13.289062 C 185.76562 14.384174 185.95266 15.410918 186.32422 16.369141 C 186.71533 17.327363 187.25306 18.176811 187.9375 18.919922 C 188.62194 19.643477 189.42269 20.220168 190.3418 20.650391 C 191.28046 21.061057 192.30721 21.267578 193.42188 21.267578 C 194.16499 21.267578 194.88001 21.168212 195.56445 20.972656 C 196.2489 20.796656 196.8743 20.543382 197.44141 20.210938 C 198.00852 19.858937 198.50728 19.45759 198.9375 19.007812 C 199.36772 18.538479 199.69893 18.020236 199.93359 17.453125 L 198.20312 16.984375 C 198.02712 17.395042 197.77385 17.776906 197.44141 18.128906 C 197.10896 18.461351 196.73684 18.743849 196.32617 18.978516 C 195.91551 19.213182 195.46545 19.40022 194.97656 19.537109 C 194.48767 19.673998 193.99865 19.742188 193.50977 19.742188 C 192.76665 19.742188 192.06333 19.603856 191.39844 19.330078 C 190.7531 19.036745 190.17641 18.637351 189.66797 18.128906 C 189.15952 17.620462 188.73869 17.022335 188.40625 16.337891 C 188.09336 15.633891 187.90828 14.872115 187.84961 14.050781 L 200.93164 14.050781 C 200.9512 13.992115 200.96094 13.88496 200.96094 13.728516 L 200.96094 13.259766 C 200.96094 12.203766 200.77585 11.206245 200.4043 10.267578 C 200.03274 9.3289114 199.5145 8.4969931 198.84961 7.7734375 C 198.18472 7.0498819 197.38203 6.4829323 196.44336 6.0722656 C 195.52425 5.6420434 194.50724 5.4277344 193.39258 5.4277344 z M 80.859375 5.6035156 C 79.764264 5.6035156 78.737519 5.9347205 77.779297 6.5996094 C 76.821075 7.2644983 76.059299 8.1840885 75.492188 9.3574219 L 75.492188 5.6914062 L 73.613281 5.6914062 L 73.613281 20.972656 L 75.609375 20.972656 L 75.609375 11.46875 C 76.020042 10.23675 76.72337 9.2704063 77.720703 8.5664062 C 78.718036 7.8624062 79.890901 7.490283 81.240234 7.4511719 L 81.240234 5.6328125 C 81.142457 5.6132569 81.015819 5.6035156 80.859375 5.6035156 z M 169.25977 5.6914062 L 169.25977 14.666016 C 169.25977 16.856238 169.65916 18.510333 170.46094 19.625 C 171.28227 20.720111 172.52528 21.267578 174.1875 21.267578 C 175.47817 21.267578 176.69 20.944161 177.82422 20.298828 C 178.978 19.633939 179.88785 18.704608 180.55273 17.511719 L 180.55273 19.271484 C 180.55273 19.799484 180.69885 20.220314 180.99219 20.533203 C 181.28552 20.846092 181.66739 21.011694 182.13672 21.03125 L 182.42969 21.03125 C 182.58613 21.03125 182.78096 21.011767 183.01562 20.972656 L 183.01562 19.212891 C 182.54629 19.212891 182.3125 18.940134 182.3125 18.392578 L 182.3125 5.6914062 L 180.31836 5.6914062 L 180.31836 15.3125 C 180.08369 15.957833 179.77002 16.534524 179.37891 17.042969 C 179.00735 17.551413 178.57678 17.991726 178.08789 18.363281 C 177.61856 18.734837 177.10031 19.017335 176.5332 19.212891 C 175.96609 19.408446 175.3894 19.507812 174.80273 19.507812 C 172.43651 19.507812 171.25391 17.775787 171.25391 14.314453 L 171.25391 5.6914062 L 169.25977 5.6914062 z M 28.59375 6.9824219 C 29.336861 6.9824219 30.032401 7.1188003 30.677734 7.3925781 C 31.342623 7.6663559 31.919314 8.0482205 32.408203 8.5371094 C 32.916648 9.0259983 33.325783 9.6124305 33.638672 10.296875 C 33.971116 10.961764 34.167896 11.704057 34.226562 12.525391 L 22.992188 12.525391 C 23.050854 11.723613 23.226198 10.981319 23.519531 10.296875 C 23.83242 9.6124305 24.233767 9.0259983 24.722656 8.5371094 C 25.231101 8.0482205 25.817533 7.6663559 26.482422 7.3925781 C 27.147311 7.1188003 27.850639 6.9824219 28.59375 6.9824219 z M 62.96875 6.9824219 C 63.711861 6.9824219 64.407401 7.1188003 65.052734 7.3925781 C 65.717623 7.6663559 66.294314 8.0482205 66.783203 8.5371094 C 67.291648 9.0259983 67.700783 9.6124305 68.013672 10.296875 C 68.346116 10.961764 68.542896 11.704057 68.601562 12.525391 L 57.367188 12.525391 C 57.425854 11.723613 57.601198 10.981319 57.894531 10.296875 C 58.20742 9.6124305 58.608767 9.0259983 59.097656 8.5371094 C 59.606101 8.0482205 60.192533 7.6663559 60.857422 7.3925781 C 61.522311 7.1188003 62.225639 6.9824219 62.96875 6.9824219 z M 115.62109 6.9824219 C 116.3642 6.9824219 117.05779 7.1188003 117.70312 7.3925781 C 118.36801 7.6663559 118.9447 8.0482205 119.43359 8.5371094 C 119.94204 9.0259983 120.35313 9.6124305 120.66602 10.296875 C 120.99846 10.961764 121.19329 11.704057 121.25195 12.525391 L 110.01758 12.525391 C 110.07624 11.723613 110.25159 10.981319 110.54492 10.296875 C 110.85781 9.6124305 111.25916 9.0259983 111.74805 8.5371094 C 112.25649 8.0482205 112.84292 7.6663559 113.50781 7.3925781 C 114.1727 7.1188003 114.87798 6.9824219 115.62109 6.9824219 z M 193.42188 6.9824219 C 194.16499 6.9824219 194.86053 7.1188003 195.50586 7.3925781 C 196.17075 7.6663559 196.74744 8.0482205 197.23633 8.5371094 C 197.74477 9.0259983 198.15391 9.6124305 198.4668 10.296875 C 198.79924 10.961764 198.99602 11.704057 199.05469 12.525391 L 187.82031 12.525391 C 187.87898 11.723613 188.05432 10.981319 188.34766 10.296875 C 188.66055 9.6124305 189.06189 9.0259983 189.55078 8.5371094 C 190.05923 8.0482205 190.64566 7.6663559 191.31055 7.3925781 C 191.97544 7.1188003 192.67876 6.9824219 193.42188 6.9824219 z M 89.123047 13.169922 C 89.866158 13.169922 90.590922 13.240064 91.294922 13.376953 C 92.018477 13.513842 92.712064 13.708668 93.376953 13.962891 L 93.376953 16.457031 C 93.376953 16.633031 93.328247 16.827858 93.230469 17.042969 C 93.152247 17.238524 93.025609 17.423609 92.849609 17.599609 C 92.399832 18.244943 91.735469 18.763186 90.855469 19.154297 C 89.995024 19.545408 89.04621 19.742188 88.009766 19.742188 C 87.501321 19.742188 87.022043 19.652563 86.572266 19.476562 C 86.122488 19.300562 85.730882 19.066771 85.398438 18.773438 C 85.085549 18.460549 84.832274 18.098167 84.636719 17.6875 C 84.460719 17.276833 84.371094 16.838474 84.371094 16.369141 C 84.371094 15.410918 84.811406 14.637448 85.691406 14.050781 C 86.571406 13.464115 87.715047 13.169922 89.123047 13.169922 z "
       transform="matrix(0.26458333,0,0,0.26458333,0,291.37309)"
       id="text18406-2-0-5-12-35-7-7" />
  </g>
</svg>
