<?xml version="1.0" encoding="UTF-8" standalone="no"?>
<!-- Created with Inkscape (http://www.inkscape.org/) -->

<svg
   xmlns:dc="http://purl.org/dc/elements/1.1/"
   xmlns:cc="http://creativecommons.org/ns#"
   xmlns:rdf="http://www.w3.org/1999/02/22-rdf-syntax-ns#"
   xmlns:svg="http://www.w3.org/2000/svg"
   xmlns="http://www.w3.org/2000/svg"
   xmlns:sodipodi="http://sodipodi.sourceforge.net/DTD/sodipodi-0.dtd"
   xmlns:inkscape="http://www.inkscape.org/namespaces/inkscape"
   width="123.331"
   height="27.191999"
   viewBox="0 0 32.631326 7.19455"
   version="1.1"
   id="svg10179"
   inkscape:version="0.92.3 (2405546, 2018-03-11)"
   sodipodi:docname="4.svg">
  <defs
     id="defs10173" />
  <sodipodi:namedview
     id="base"
     pagecolor="#ffffff"
     bordercolor="#666666"
     borderopacity="1.0"
     inkscape:pageopacity="0.0"
     inkscape:pageshadow="2"
     inkscape:zoom="4"
     inkscape:cx="66.327343"
     inkscape:cy="-1.2471064"
     inkscape:document-units="mm"
     inkscape:current-layer="layer1"
     showgrid="false"
     units="px"
     inkscape:window-width="1853"
     inkscape:window-height="1025"
     inkscape:window-x="1433"
     inkscape:window-y="27"
     inkscape:window-maximized="1" />
  <metadata
     id="metadata10176">
    <rdf:RDF>
      <cc:Work
         rdf:about="">
        <dc:format>image/svg+xml</dc:format>
        <dc:type
           rdf:resource="http://purl.org/dc/dcmitype/StillImage" />
        <dc:title></dc:title>
      </cc:Work>
    </rdf:RDF>
  </metadata>
  <g
     inkscape:label="Layer 1"
     inkscape:groupmode="layer"
     id="layer1"
     transform="translate(0,-289.80543)">
    <path
       style="font-style:normal;font-variant:normal;font-weight:normal;font-stretch:normal;font-size:4.97813368px;line-height:1.5;font-family:Raleway;-inkscape-font-specification:Raleway;letter-spacing:0px;word-spacing:0px;fill:#d4ff2a;fill-opacity:1;stroke:none;stroke-width:0.20742224"
       d="M 9.8847656 0 C 8.3203212 0 6.9234063 0.31367534 5.6914062 0.93945312 C 4.4594062 1.5456754 3.4229202 2.3366753 2.5820312 3.3144531 C 1.7411423 4.2922309 1.0962622 5.4066475 0.64648438 6.6582031 C 0.21626214 7.8902031 -2.3364557e-17 9.13321 0 10.384766 C -2.220446e-16 11.714543 0.23574478 13.023786 0.70507812 14.314453 C 1.193967 15.585564 1.8680712 16.729205 2.7285156 17.746094 C 3.5889601 18.743427 4.6157048 19.555863 5.8085938 20.181641 C 7.0014827 20.807418 8.3107257 21.119141 9.7382812 21.119141 C 10.540059 21.119141 11.352495 21.011986 12.173828 20.796875 C 13.014717 20.581764 13.805717 20.270042 14.548828 19.859375 C 15.291939 19.448708 15.967997 18.949948 16.574219 18.363281 C 17.180441 17.757059 17.649977 17.061519 17.982422 16.279297 L 16.279297 15.400391 C 15.946852 16.084835 15.537717 16.671267 15.048828 17.160156 C 14.559939 17.62949 14.022214 18.030837 13.435547 18.363281 C 12.868436 18.67617 12.272262 18.909962 11.646484 19.066406 C 11.040262 19.203295 10.442135 19.271484 9.8554688 19.271484 C 8.7408021 19.271484 7.704316 19.037693 6.7460938 18.568359 C 5.8074271 18.07947 4.9872031 17.43459 4.2832031 16.632812 C 3.5987587 15.811479 3.0512917 14.872406 2.640625 13.816406 C 2.2495139 12.760406 2.0527344 11.655731 2.0527344 10.501953 C 2.0527344 9.4459531 2.2202899 8.409467 2.5527344 7.3925781 C 2.8851788 6.3561337 3.3741979 5.4268021 4.0195312 4.6054688 C 4.6844202 3.7841354 5.4949028 3.1197726 6.453125 2.6113281 C 7.4113472 2.1028837 8.5160225 1.8476562 9.7675781 1.8476562 C 10.334689 1.8476563 10.91138 1.9158455 11.498047 2.0527344 C 12.084714 2.1700677 12.651663 2.3765885 13.199219 2.6699219 C 13.746774 2.9632552 14.255276 3.3431667 14.724609 3.8125 C 15.213498 4.2818333 15.624587 4.8604774 15.957031 5.5449219 L 17.570312 4.546875 C 16.944535 3.1975416 15.966497 2.1026077 14.636719 1.2617188 C 13.326497 0.42082985 11.742543 0 9.8847656 0 z M 27.589844 5.3964844 C 26.494733 5.3964844 25.487471 5.6127465 24.568359 6.0429688 C 23.649248 6.473191 22.846554 7.0498819 22.162109 7.7734375 C 21.49722 8.4969931 20.969236 9.3386528 20.578125 10.296875 C 20.206569 11.255097 20.021484 12.270148 20.021484 13.345703 C 20.021484 14.401703 20.206569 15.408965 20.578125 16.367188 C 20.949681 17.32541 21.467924 18.167069 22.132812 18.890625 C 22.817257 19.614181 23.619951 20.190872 24.539062 20.621094 C 25.458174 21.03176 26.475177 21.238281 27.589844 21.238281 C 28.70451 21.238281 29.721514 21.03176 30.640625 20.621094 C 31.579292 20.190872 32.380033 19.614181 33.044922 18.890625 C 33.729366 18.167069 34.257351 17.32541 34.628906 16.367188 C 35.000462 15.408965 35.1875 14.401703 35.1875 13.345703 C 35.1875 12.270148 34.99072 11.255097 34.599609 10.296875 C 34.228054 9.3386528 33.700069 8.4969931 33.015625 7.7734375 C 32.350736 7.0498819 31.549995 6.473191 30.611328 6.0429688 C 29.692217 5.6127465 28.684955 5.3964844 27.589844 5.3964844 z M 46.207031 5.3964844 C 44.975031 5.3964844 43.850873 5.7296423 42.833984 6.3945312 C 41.817095 7.0398646 40.996872 7.9497135 40.371094 9.1230469 L 40.371094 5.6621094 L 38.550781 5.6621094 L 38.550781 20.943359 L 40.546875 20.943359 L 40.546875 11.585938 C 40.937986 10.275715 41.582866 9.2197465 42.482422 8.4179688 C 43.381977 7.616191 44.408722 7.2167969 45.5625 7.2167969 C 46.696722 7.2167969 47.536429 7.6259323 48.083984 8.4472656 C 48.63154 9.268599 48.90625 10.589536 48.90625 12.408203 L 48.90625 20.943359 L 50.900391 20.943359 L 50.900391 11.615234 C 51.076391 10.969901 51.331618 10.383469 51.664062 9.8554688 C 51.996507 9.3079132 52.376418 8.8383767 52.806641 8.4472656 C 53.256418 8.0561545 53.735696 7.7541736 54.244141 7.5390625 C 54.772141 7.3239514 55.329349 7.2167969 55.916016 7.2167969 C 57.030682 7.2167969 57.872342 7.6356736 58.439453 8.4765625 C 59.006564 9.3174514 59.291016 10.628648 59.291016 12.408203 L 59.291016 20.943359 L 61.285156 20.943359 L 61.285156 11.998047 C 61.285156 11.000714 61.197484 10.100606 61.021484 9.2988281 C 60.86504 8.4774948 60.600071 7.783908 60.228516 7.2167969 C 59.876516 6.6301302 59.397238 6.1800764 58.791016 5.8671875 C 58.204349 5.5542986 57.481538 5.3964844 56.621094 5.3964844 C 54.117983 5.3964844 52.152165 6.7076805 50.724609 9.328125 C 50.548609 8.1547916 50.069332 7.2059774 49.287109 6.4824219 C 48.524443 5.7588663 47.497698 5.3964844 46.207031 5.3964844 z M 73.015625 5.3964844 C 71.842292 5.3964844 70.757099 5.7004184 69.759766 6.3066406 C 68.762432 6.8933073 67.95195 7.6648246 67.326172 8.6230469 L 67.326172 5.6621094 L 65.535156 5.6621094 L 65.535156 27.191406 L 67.53125 27.191406 L 67.53125 17.775391 C 68.137472 18.772724 68.928472 19.604642 69.90625 20.269531 C 70.903583 20.914865 72.047224 21.238281 73.337891 21.238281 C 74.35478 21.238281 75.284111 21.03176 76.125 20.621094 C 76.985444 20.190872 77.71995 19.614181 78.326172 18.890625 C 78.95195 18.167069 79.429274 17.32541 79.761719 16.367188 C 80.094163 15.408965 80.261719 14.391962 80.261719 13.316406 C 80.261719 12.299517 80.074681 11.313691 79.703125 10.355469 C 79.351125 9.3972465 78.852365 8.5555868 78.207031 7.8320312 C 77.561698 7.0889201 76.799922 6.5024879 75.919922 6.0722656 C 75.039922 5.6224878 74.071625 5.3964844 73.015625 5.3964844 z M 89.154297 5.3964844 C 87.296519 5.3964844 85.381361 6.0628003 83.40625 7.3925781 L 84.109375 8.7128906 C 84.950264 8.1262239 85.782182 7.6761701 86.603516 7.3632812 C 87.424849 7.0503924 88.22559 6.8925781 89.007812 6.8925781 C 90.357146 6.8925781 91.413115 7.2939253 92.175781 8.0957031 C 92.938448 8.8779254 93.320312 9.9436354 93.320312 11.292969 L 93.320312 12.671875 C 92.694535 12.417653 91.981465 12.222826 91.179688 12.085938 C 90.37791 11.949049 89.584957 11.880859 88.802734 11.880859 C 87.864068 11.880859 87.002925 11.997755 86.220703 12.232422 C 85.438481 12.447533 84.764377 12.759255 84.197266 13.169922 C 83.630155 13.580589 83.189842 14.069608 82.876953 14.636719 C 82.564064 15.20383 82.408203 15.819486 82.408203 16.484375 C 82.408203 17.149264 82.53484 17.776615 82.789062 18.363281 C 83.043285 18.930392 83.395925 19.429153 83.845703 19.859375 C 84.315036 20.289597 84.852762 20.630543 85.458984 20.884766 C 86.084762 21.119432 86.758866 21.238281 87.482422 21.238281 C 88.714422 21.238281 89.858062 20.992795 90.914062 20.503906 C 91.989618 20.015017 92.879984 19.311689 93.583984 18.392578 L 93.642578 19.59375 C 93.662134 20.043528 93.808253 20.396168 94.082031 20.650391 C 94.375365 20.904613 94.776712 21.03125 95.285156 21.03125 C 95.461156 21.03125 95.716384 21.002026 96.048828 20.943359 L 96.048828 19.183594 C 95.559939 19.183594 95.314453 18.910837 95.314453 18.363281 L 95.314453 11.46875 C 95.314453 9.5718611 94.766986 8.0853212 93.671875 7.0097656 C 92.576764 5.93421 91.070741 5.3964844 89.154297 5.3964844 z M 115.76367 5.3964844 C 114.66856 5.3964844 113.65156 5.6127465 112.71289 6.0429688 C 111.77422 6.4536354 110.96179 7.0205851 110.27734 7.7441406 C 109.61245 8.4481406 109.08447 9.280059 108.69336 10.238281 C 108.3218 11.176948 108.13672 12.182257 108.13672 13.257812 C 108.13672 14.352924 108.3218 15.379668 108.69336 16.337891 C 109.08447 17.296113 109.6222 18.147514 110.30664 18.890625 C 110.99109 19.614181 111.79378 20.190872 112.71289 20.621094 C 113.65156 21.03176 114.6783 21.238281 115.79297 21.238281 C 116.53608 21.238281 117.24915 21.138915 117.93359 20.943359 C 118.61804 20.767359 119.24344 20.514085 119.81055 20.181641 C 120.37766 19.829641 120.87642 19.428293 121.30664 18.978516 C 121.73686 18.509182 122.07002 17.990939 122.30469 17.423828 L 120.57422 16.955078 C 120.39822 17.365745 120.14299 17.747609 119.81055 18.099609 C 119.4781 18.432054 119.10598 18.714552 118.69531 18.949219 C 118.28465 19.183885 117.83655 19.36897 117.34766 19.505859 C 116.85877 19.642748 116.36975 19.712891 115.88086 19.712891 C 115.13775 19.712891 114.43247 19.574559 113.76758 19.300781 C 113.12224 19.007448 112.54555 18.608054 112.03711 18.099609 C 111.52866 17.591165 111.10784 16.993038 110.77539 16.308594 C 110.4625 15.604594 110.27742 14.842818 110.21875 14.021484 L 123.30078 14.021484 C 123.32034 13.962818 123.33008 13.855663 123.33008 13.699219 L 123.33008 13.228516 C 123.33008 12.172516 123.14499 11.176948 122.77344 10.238281 C 122.40188 9.2996146 121.88364 8.4676962 121.21875 7.7441406 C 120.55386 7.0205851 119.75312 6.4536354 118.81445 6.0429688 C 117.89534 5.6127465 116.87834 5.3964844 115.76367 5.3964844 z M 106.86914 5.5742188 C 105.77403 5.5742188 104.74728 5.9054236 103.78906 6.5703125 C 102.83084 7.2352014 102.06906 8.1547916 101.50195 9.328125 L 101.50195 5.6621094 L 99.625 5.6621094 L 99.625 20.943359 L 101.61914 20.943359 L 101.61914 11.439453 C 102.02981 10.207453 102.73314 9.2391563 103.73047 8.5351562 C 104.7278 7.8311562 105.90262 7.4609861 107.25195 7.421875 L 107.25195 5.6035156 C 107.15418 5.5839601 107.02559 5.5742188 106.86914 5.5742188 z M 115.79297 6.9511719 C 116.53608 6.9511719 117.22967 7.0895035 117.875 7.3632812 C 118.53989 7.637059 119.11658 8.0169705 119.60547 8.5058594 C 120.11391 8.9947483 120.525 9.5831337 120.83789 10.267578 C 121.17034 10.932467 121.36516 11.67476 121.42383 12.496094 L 110.18945 12.496094 C 110.24812 11.694316 110.42346 10.952023 110.7168 10.267578 C 111.02969 9.5831337 111.43103 8.9947483 111.91992 8.5058594 C 112.42837 8.0169705 113.0148 7.637059 113.67969 7.3632812 C 114.34458 7.0895035 115.04986 6.9511719 115.79297 6.9511719 z M 27.589844 7.1582031 C 28.35251 7.1582031 29.06558 7.3238055 29.730469 7.65625 C 30.414913 7.9691389 31.011087 8.4094514 31.519531 8.9765625 C 32.027976 9.5241181 32.429323 10.17874 32.722656 10.941406 C 33.01599 11.684517 33.162109 12.475517 33.162109 13.316406 C 33.162109 14.176851 33.01599 14.979545 32.722656 15.722656 C 32.429323 16.465767 32.027976 17.120389 31.519531 17.6875 C 31.011087 18.235056 30.414913 18.675368 29.730469 19.007812 C 29.06558 19.320701 28.35251 19.476562 27.589844 19.476562 C 26.827177 19.476562 26.102413 19.320701 25.417969 19.007812 C 24.75308 18.694924 24.166648 18.264352 23.658203 17.716797 C 23.169314 17.149686 22.779661 16.504806 22.486328 15.78125 C 22.192995 15.038139 22.044922 14.237398 22.044922 13.376953 C 22.044922 12.516509 22.192995 11.713814 22.486328 10.970703 C 22.779661 10.208036 23.179056 9.5436736 23.6875 8.9765625 C 24.195944 8.4094514 24.782377 7.9691389 25.447266 7.65625 C 26.112155 7.3238055 26.827177 7.1582031 27.589844 7.1582031 z M 72.546875 7.1582031 C 73.348653 7.1582031 74.090946 7.3238055 74.775391 7.65625 C 75.479391 7.9886945 76.085306 8.4387483 76.59375 9.0058594 C 77.102194 9.5729705 77.503542 10.227592 77.796875 10.970703 C 78.090208 11.713814 78.236328 12.495073 78.236328 13.316406 C 78.236328 14.098628 78.109691 14.862358 77.855469 15.605469 C 77.601247 16.329024 77.231076 16.983646 76.742188 17.570312 C 76.272854 18.137424 75.69421 18.597219 75.009766 18.949219 C 74.344877 19.301219 73.602583 19.476562 72.78125 19.476562 C 72.214139 19.476562 71.666672 19.379149 71.138672 19.183594 C 70.610672 18.988038 70.111911 18.725023 69.642578 18.392578 C 69.1928 18.040578 68.781712 17.62949 68.410156 17.160156 C 68.058156 16.690823 67.765917 16.182321 67.53125 15.634766 L 67.53125 10.941406 C 67.609472 10.432962 67.81404 9.953684 68.146484 9.5039062 C 68.498484 9.0345729 68.909573 8.6332257 69.378906 8.3007812 C 69.867795 7.9487812 70.386038 7.6760243 70.933594 7.4804688 C 71.500705 7.2653576 72.038431 7.1582031 72.546875 7.1582031 z M 89.066406 13.140625 C 89.809517 13.140625 90.534281 13.208814 91.238281 13.345703 C 91.961837 13.482592 92.655424 13.679372 93.320312 13.933594 L 93.320312 16.425781 C 93.320313 16.601781 93.271606 16.798561 93.173828 17.013672 C 93.095606 17.209227 92.968969 17.394312 92.792969 17.570312 C 92.343191 18.215646 91.676875 18.733889 90.796875 19.125 C 89.936431 19.516111 88.987616 19.712891 87.951172 19.712891 C 87.442727 19.712891 86.965403 19.623266 86.515625 19.447266 C 86.065847 19.271266 85.674241 19.037474 85.341797 18.744141 C 85.028908 18.431252 84.773681 18.06887 84.578125 17.658203 C 84.402125 17.247536 84.314453 16.807224 84.314453 16.337891 C 84.314453 15.379668 84.754766 14.608151 85.634766 14.021484 C 86.514766 13.434818 87.658406 13.140625 89.066406 13.140625 z "
       transform="matrix(0.26458333,0,0,0.26458333,0,289.80543)"
       id="text18406-2-6-4-3-20-0-6" />
  </g>
</svg>
