<?xml version="1.0" encoding="UTF-8" standalone="no"?>
<!-- Created with Inkscape (http://www.inkscape.org/) -->

<svg
   xmlns:dc="http://purl.org/dc/elements/1.1/"
   xmlns:cc="http://creativecommons.org/ns#"
   xmlns:rdf="http://www.w3.org/1999/02/22-rdf-syntax-ns#"
   xmlns:svg="http://www.w3.org/2000/svg"
   xmlns="http://www.w3.org/2000/svg"
   xmlns:sodipodi="http://sodipodi.sourceforge.net/DTD/sodipodi-0.dtd"
   xmlns:inkscape="http://www.inkscape.org/namespaces/inkscape"
   width="289.91699"
   height="22.000999"
   viewBox="0 0 76.707201 5.8210979"
   version="1.1"
   id="svg10179"
   inkscape:version="0.92.3 (2405546, 2018-03-11)"
   sodipodi:docname="2b.svg">
  <defs
     id="defs10173" />
  <sodipodi:namedview
     id="base"
     pagecolor="#ffffff"
     bordercolor="#666666"
     borderopacity="1.0"
     inkscape:pageopacity="0.0"
     inkscape:pageshadow="2"
     inkscape:zoom="4"
     inkscape:cx="66.327343"
     inkscape:cy="-1.2471064"
     inkscape:document-units="mm"
     inkscape:current-layer="layer1"
     showgrid="false"
     units="px"
     inkscape:window-width="1853"
     inkscape:window-height="1025"
     inkscape:window-x="1433"
     inkscape:window-y="27"
     inkscape:window-maximized="1" />
  <metadata
     id="metadata10176">
    <rdf:RDF>
      <cc:Work
         rdf:about="">
        <dc:format>image/svg+xml</dc:format>
        <dc:type
           rdf:resource="http://purl.org/dc/dcmitype/StillImage" />
        <dc:title></dc:title>
      </cc:Work>
    </rdf:RDF>
  </metadata>
  <g
     inkscape:label="Layer 1"
     inkscape:groupmode="layer"
     id="layer1"
     transform="translate(0,-291.17888)">
    <path
       style="font-style:normal;font-variant:normal;font-weight:normal;font-stretch:normal;font-size:4.97824669px;line-height:1.5;font-family:Raleway;-inkscape-font-specification:Raleway;letter-spacing:0px;word-spacing:0px;fill:#ffffff;fill-opacity:1;stroke:none;stroke-width:0.20742221"
       d="M 116.76953 0 C 115.38109 0 114.28615 0.53767687 113.48438 1.6132812 C 112.6826 2.6693292 112.28125 4.1362533 112.28125 6.0136719 L 112.28125 6.4238281 L 110.16992 6.4238281 L 110.16992 8.0078125 L 112.28125 8.0078125 L 112.28125 21.707031 L 114.27539 21.707031 L 114.27539 8.0078125 L 118.5 8.0078125 L 118.5 6.4238281 L 114.27539 6.4238281 L 114.27539 5.9550781 C 114.27539 4.5861271 114.52088 3.5399946 115.00977 2.8164062 C 115.49865 2.0928179 116.21172 1.7304688 117.15039 1.7304688 C 117.56106 1.7304687 117.9624 1.7889113 118.35352 1.90625 C 118.76418 2.0235887 119.10513 2.1911291 119.37891 2.40625 L 119.99609 0.96875 C 119.58543 0.67540335 119.09641 0.43967986 118.5293 0.26367188 C 117.96219 0.087663886 117.37575 0 116.76953 0 z M 276.83398 0.29296875 L 276.83398 21.707031 L 278.82812 21.707031 L 278.82812 16.925781 L 282.11523 13.875 L 287.74609 21.707031 L 289.91602 21.707031 L 283.43359 12.701172 L 289.68164 6.453125 L 287.42383 6.453125 L 278.82812 14.84375 L 278.82812 0.29296875 L 276.83398 0.29296875 z M 8.1835938 0.73242188 C 7.0884826 0.73242187 6.0909618 0.87074105 5.1914062 1.1445312 C 4.2918507 1.398765 3.510592 1.780595 2.8457031 2.2890625 C 2.1808142 2.7779736 1.6625712 3.4033143 1.2910156 4.1660156 C 0.93901563 4.9091605 0.76367187 5.7585312 0.76367188 6.7167969 C 0.76367188 7.5577239 0.90005035 8.2726817 1.1738281 8.859375 C 1.4671615 9.4265119 1.8977326 9.9154866 2.4648438 10.326172 C 3.0319549 10.736857 3.7255417 11.077772 4.546875 11.351562 C 5.3682083 11.625353 6.3267639 11.890297 7.421875 12.144531 C 8.4583194 12.379209 9.3662153 12.612979 10.148438 12.847656 C 10.93066 13.082334 11.587234 13.366759 12.115234 13.699219 C 12.643234 14.012122 13.032887 14.393952 13.287109 14.84375 C 13.560887 15.273992 13.699219 15.811669 13.699219 16.457031 C 13.699219 17.669531 13.229682 18.579297 12.291016 19.185547 C 11.371905 19.77224 10.080191 20.064453 8.4179688 20.064453 C 7.616191 20.064453 6.8544149 19.99627 6.1308594 19.859375 C 5.4073038 19.702923 4.7234583 19.498374 4.078125 19.244141 C 3.4523472 18.97035 2.8756562 18.656703 2.3476562 18.304688 C 1.8392118 17.952672 1.3988993 17.580582 1.0273438 17.189453 L 0 18.861328 C 2.3466666 20.875642 5.1327084 21.882812 8.359375 21.882812 C 9.4544861 21.882812 10.461748 21.775668 11.380859 21.560547 C 12.29997 21.32587 13.092924 20.975214 13.757812 20.505859 C 14.422701 20.036505 14.940944 19.448173 15.3125 18.744141 C 15.684056 18.040109 15.869141 17.210219 15.869141 16.251953 C 15.869141 15.313244 15.703538 14.530103 15.371094 13.904297 C 15.038649 13.278491 14.559372 12.750554 13.933594 12.320312 C 13.307816 11.870514 12.544087 11.498425 11.644531 11.205078 C 10.764531 10.911731 9.7689635 10.64874 8.6542969 10.414062 C 7.6569636 10.198942 6.7860799 9.982699 6.0429688 9.7675781 C 5.3194132 9.5524572 4.7232396 9.299206 4.2539062 9.0058594 C 3.7845729 8.7125127 3.4319323 8.3696445 3.1972656 7.9785156 C 2.9821545 7.5678303 2.875 7.0496343 2.875 6.4238281 C 2.875 5.2308851 3.2958299 4.2918974 4.1367188 3.6074219 C 4.9776076 2.9033899 6.3160747 2.5527344 8.1542969 2.5527344 C 9.4058524 2.5527344 10.520269 2.7572834 11.498047 3.1679688 C 12.475825 3.5786541 13.259036 4.1163309 13.845703 4.78125 L 14.841797 3.1386719 C 13.961797 2.3759706 12.97597 1.7895916 11.880859 1.3789062 C 10.805304 0.9486645 9.5720382 0.73242188 8.1835938 0.73242188 z M 76.208984 0.88085938 L 76.208984 21.707031 L 78.261719 21.707031 L 78.261719 14.021484 L 84.421875 14.021484 L 89.320312 21.707031 L 91.638672 21.707031 L 86.533203 13.669922 C 87.237203 13.533027 87.874295 13.279776 88.441406 12.908203 C 89.008517 12.517074 89.485842 12.04758 89.876953 11.5 C 90.28762 10.932863 90.601295 10.305569 90.816406 9.6210938 C 91.051073 8.9170618 91.167969 8.1845763 91.167969 7.421875 C 91.167969 6.6200608 91.012108 5.8271796 90.699219 5.0449219 C 90.405885 4.2626641 89.985056 3.5691404 89.4375 2.9628906 C 88.889944 2.3370844 88.235323 1.8383693 87.472656 1.4667969 C 86.729545 1.075668 85.907368 0.88085938 85.007812 0.88085938 L 76.208984 0.88085938 z M 222.75977 0.88085938 L 222.75977 21.707031 L 232.58789 21.707031 C 233.38967 21.707031 234.1417 21.580406 234.8457 21.326172 C 235.5497 21.052382 236.16536 20.680292 236.69336 20.210938 C 237.22136 19.722026 237.64219 19.155128 237.95508 18.509766 C 238.26797 17.844847 238.42383 17.122101 238.42383 16.339844 C 238.42383 15.068675 238.07314 13.954359 237.36914 12.996094 C 236.6847 12.037828 235.74562 11.381313 234.55273 11.029297 C 235.4914 10.599055 236.22395 9.9542335 236.75195 9.09375 C 237.27995 8.2137101 237.54492 7.2455011 237.54492 6.1894531 C 237.54492 5.5440905 237.42803 4.9090093 237.19336 4.2832031 C 236.97825 3.6378405 236.66457 3.0709423 236.25391 2.5820312 C 235.84324 2.0735637 235.34448 1.6625125 234.75781 1.3496094 C 234.17115 1.0367063 233.51652 0.88085938 232.79297 0.88085938 L 222.75977 0.88085938 z M 224.81445 2.6699219 L 232.14648 2.6699219 C 232.63537 2.6699219 233.08543 2.7770666 233.49609 2.9921875 C 233.90676 3.1877519 234.2594 3.4624371 234.55273 3.8144531 C 234.86562 4.1469127 235.09941 4.5462704 235.25586 5.015625 C 235.43186 5.4849796 235.52148 5.9836948 235.52148 6.5117188 C 235.52148 7.0201863 235.43186 7.509161 235.25586 7.9785156 C 235.07986 8.4283138 234.83633 8.8296246 234.52344 9.1816406 C 234.21055 9.5336566 233.82868 9.8180822 233.37891 10.033203 C 232.94868 10.248324 232.47915 10.355469 231.9707 10.355469 L 224.81445 10.355469 L 224.81445 2.6699219 z M 78.261719 2.6992188 L 84.890625 2.6992188 C 85.457736 2.6992188 85.995462 2.8258444 86.503906 3.0800781 C 87.031906 3.3343119 87.48196 3.6771801 87.853516 4.1074219 C 88.244627 4.5376636 88.548561 5.0461192 88.763672 5.6328125 C 88.998339 6.1999494 89.115234 6.7960688 89.115234 7.421875 C 89.115234 8.0476812 89.017821 8.6438006 88.822266 9.2109375 C 88.62671 9.7780744 88.352 10.28653 88 10.736328 C 87.648 11.186126 87.217429 11.548475 86.708984 11.822266 C 86.220095 12.076499 85.672628 12.203125 85.066406 12.203125 L 78.261719 12.203125 L 78.261719 2.6992188 z M 25.679688 6.1601562 C 24.545465 6.1601562 23.508979 6.3647053 22.570312 6.7753906 C 21.631646 7.1860759 20.81921 7.7549272 20.134766 8.4785156 C 19.469877 9.1825476 18.951634 10.012437 18.580078 10.970703 C 18.208523 11.928969 18.023438 12.94588 18.023438 14.021484 C 18.023437 15.116645 18.208523 16.143297 18.580078 17.101562 C 18.971189 18.059828 19.508915 18.911152 20.193359 19.654297 C 20.877804 20.377885 21.69024 20.954524 22.628906 21.384766 C 23.567573 21.795451 24.594318 22.001953 25.708984 22.001953 C 26.43254 22.001953 27.126127 21.902596 27.791016 21.707031 C 28.47546 21.531023 29.091116 21.277772 29.638672 20.945312 C 30.205783 20.593297 30.694802 20.191986 31.105469 19.742188 C 31.516135 19.272833 31.829811 18.764377 32.044922 18.216797 L 30.078125 17.630859 C 29.960792 17.982875 29.756224 18.31405 29.462891 18.626953 C 29.169557 18.939856 28.816917 19.224282 28.40625 19.478516 C 27.995583 19.713193 27.547483 19.898261 27.058594 20.035156 C 26.58926 20.172051 26.109983 20.240234 25.621094 20.240234 C 24.858427 20.240234 24.133663 20.084387 23.449219 19.771484 C 22.78433 19.439025 22.197898 18.998752 21.689453 18.451172 C 21.181009 17.884035 20.779661 17.219733 20.486328 16.457031 C 20.192995 15.69433 20.046875 14.881968 20.046875 14.021484 C 20.046875 13.141444 20.183253 12.331035 20.457031 11.587891 C 20.750365 10.844746 21.14197 10.207711 21.630859 9.6796875 C 22.139304 9.1321071 22.725736 8.7035281 23.390625 8.390625 C 24.075069 8.0777219 24.809575 7.9199219 25.591797 7.9199219 C 26.530464 7.9199219 27.379911 8.1459049 28.142578 8.5957031 C 28.9248 9.0259449 29.530715 9.6318048 29.960938 10.414062 L 31.898438 9.796875 C 31.350882 8.6821577 30.538446 7.8035658 29.462891 7.1582031 C 28.387335 6.4932841 27.126799 6.1601562 25.679688 6.1601562 z M 40.693359 6.1601562 C 38.835582 6.1601562 36.91847 6.8244587 34.943359 8.1542969 L 35.646484 9.4746094 C 36.487373 8.8879161 37.319292 8.4379031 38.140625 8.125 C 38.961958 7.8120969 39.764653 7.65625 40.546875 7.65625 C 41.896208 7.65625 42.952177 8.0575608 43.714844 8.859375 C 44.47751 9.6416327 44.857422 10.707246 44.857422 12.056641 L 44.857422 13.435547 C 44.231644 13.181313 43.518575 12.984551 42.716797 12.847656 C 41.915019 12.710761 41.122066 12.642578 40.339844 12.642578 C 39.401177 12.642578 38.541988 12.761416 37.759766 12.996094 C 36.977543 13.211215 36.303439 13.522908 35.736328 13.933594 C 35.169217 14.344279 34.728905 14.833254 34.416016 15.400391 C 34.103127 15.967527 33.945312 16.583128 33.945312 17.248047 C 33.945312 17.912966 34.073903 18.54026 34.328125 19.126953 C 34.582347 19.69409 34.933035 20.192805 35.382812 20.623047 C 35.852146 21.053289 36.389872 21.394204 36.996094 21.648438 C 37.621872 21.883115 38.297929 22.001953 39.021484 22.001953 C 40.253484 22.001953 41.397125 21.756489 42.453125 21.267578 C 43.528681 20.778667 44.417094 20.075403 45.121094 19.15625 L 45.181641 20.357422 C 45.201196 20.80722 45.347316 21.159829 45.621094 21.414062 C 45.914427 21.668296 46.315774 21.794922 46.824219 21.794922 C 47.000219 21.794922 47.253493 21.765701 47.585938 21.707031 L 47.585938 19.947266 C 47.097049 19.947266 46.853516 19.674534 46.853516 19.126953 L 46.853516 12.232422 C 46.853516 10.335447 46.306049 8.8490419 45.210938 7.7734375 C 44.115826 6.6978331 42.609804 6.1601562 40.693359 6.1601562 z M 59.462891 6.1601562 C 58.094002 6.1601562 56.823724 6.5030245 55.650391 7.1875 C 54.496613 7.8719755 53.606247 8.7720015 52.980469 9.8867188 L 52.980469 6.4238281 L 51.162109 6.4238281 L 51.162109 21.707031 L 53.15625 21.707031 L 53.15625 12.349609 C 53.33225 11.723803 53.616701 11.147165 54.007812 10.619141 C 54.398924 10.07156 54.839236 9.6020664 55.328125 9.2109375 C 55.836569 8.8198086 56.384036 8.5159021 56.970703 8.3007812 C 57.55737 8.0856604 58.143802 7.9785156 58.730469 7.9785156 C 59.845135 7.9785156 60.667313 8.3895669 61.195312 9.2109375 C 61.742868 10.032308 62.015625 11.353126 62.015625 13.171875 L 62.015625 21.707031 L 64.009766 21.707031 L 64.009766 12.759766 C 64.009766 11.762387 63.931835 10.854574 63.775391 10.033203 C 63.618946 9.2118325 63.365672 8.5163556 63.013672 7.9492188 C 62.661672 7.3820819 62.192135 6.9418093 61.605469 6.6289062 C 61.018802 6.3160032 60.30378 6.1601562 59.462891 6.1601562 z M 101.04492 6.1601562 C 99.949811 6.1601562 98.932807 6.3744457 97.994141 6.8046875 C 97.055474 7.2153728 96.244991 7.7842241 95.560547 8.5078125 C 94.895658 9.2118445 94.367674 10.041734 93.976562 11 C 93.605007 11.938709 93.417969 12.94588 93.417969 14.021484 C 93.417969 15.116645 93.605007 16.143297 93.976562 17.101562 C 94.367674 18.059828 94.905399 18.911152 95.589844 19.654297 C 96.274288 20.377885 97.07503 20.954524 97.994141 21.384766 C 98.932807 21.795451 99.959552 22.001953 101.07422 22.001953 C 101.81733 22.001953 102.53235 21.902596 103.2168 21.707031 C 103.90124 21.531023 104.52664 21.277772 105.09375 20.945312 C 105.66086 20.593297 106.15962 20.191986 106.58984 19.742188 C 107.02007 19.272833 107.35127 18.754637 107.58594 18.1875 L 105.85547 17.71875 C 105.67947 18.129435 105.42619 18.509312 105.09375 18.861328 C 104.76131 19.193788 104.38918 19.478213 103.97852 19.712891 C 103.56785 19.947568 103.1178 20.132636 102.62891 20.269531 C 102.14002 20.406426 101.651 20.474609 101.16211 20.474609 C 100.419 20.474609 99.71567 20.338243 99.050781 20.064453 C 98.405448 19.771106 97.828757 19.369796 97.320312 18.861328 C 96.811868 18.352861 96.391038 17.756741 96.058594 17.072266 C 95.745705 16.368234 95.56062 15.606527 95.501953 14.785156 L 108.58398 14.785156 C 108.60354 14.726487 108.61328 14.619342 108.61328 14.462891 L 108.61328 13.992188 C 108.61328 12.93614 108.4282 11.938709 108.05664 11 C 107.68509 10.061291 107.16684 9.2314009 106.50195 8.5078125 C 105.83706 7.7842241 105.03437 7.2153728 104.0957 6.8046875 C 103.17659 6.3744457 102.15959 6.1601562 101.04492 6.1601562 z M 127.05664 6.1601562 C 125.96153 6.1601562 124.94453 6.3744457 124.00586 6.8046875 C 123.06719 7.2153728 122.25476 7.7842241 121.57031 8.5078125 C 120.90542 9.2118445 120.37744 10.041734 119.98633 11 C 119.61477 11.938709 119.42969 12.94588 119.42969 14.021484 C 119.42969 15.116645 119.61477 16.143297 119.98633 17.101562 C 120.37744 18.059828 120.91516 18.911152 121.59961 19.654297 C 122.28405 20.377885 123.08675 20.954524 124.00586 21.384766 C 124.94453 21.795451 125.97127 22.001953 127.08594 22.001953 C 127.82905 22.001953 128.54212 21.902596 129.22656 21.707031 C 129.91101 21.531023 130.5364 21.277772 131.10352 20.945312 C 131.67063 20.593297 132.16939 20.191986 132.59961 19.742188 C 133.02983 19.272833 133.36299 18.754637 133.59766 18.1875 L 131.86719 17.71875 C 131.69119 18.129435 131.43596 18.509312 131.10352 18.861328 C 130.77107 19.193788 130.4009 19.478213 129.99023 19.712891 C 129.57957 19.947568 129.12951 20.132636 128.64062 20.269531 C 128.15174 20.406426 127.66272 20.474609 127.17383 20.474609 C 126.43072 20.474609 125.72544 20.338243 125.06055 20.064453 C 124.41521 19.771106 123.83852 19.369796 123.33008 18.861328 C 122.82163 18.352861 122.4008 17.756741 122.06836 17.072266 C 121.75547 16.368234 121.57039 15.606527 121.51172 14.785156 L 134.59375 14.785156 C 134.61331 14.726487 134.62305 14.619342 134.62305 14.462891 L 134.62305 13.992188 C 134.62305 12.93614 134.43796 11.938709 134.06641 11 C 133.69485 10.061291 133.17661 9.2314009 132.51172 8.5078125 C 131.84683 7.7842241 131.04609 7.2153728 130.10742 6.8046875 C 129.18831 6.3744457 128.17131 6.1601562 127.05664 6.1601562 z M 153.86914 6.1601562 C 152.77403 6.1601562 151.75703 6.3744457 150.81836 6.8046875 C 149.87969 7.2153728 149.06726 7.7842241 148.38281 8.5078125 C 147.71792 9.2118445 147.18994 10.041734 146.79883 11 C 146.42727 11.938709 146.24219 12.94588 146.24219 14.021484 C 146.24219 15.116645 146.42727 16.143297 146.79883 17.101562 C 147.18994 18.059828 147.72766 18.911152 148.41211 19.654297 C 149.09655 20.377885 149.89925 20.954524 150.81836 21.384766 C 151.75703 21.795451 152.78377 22.001953 153.89844 22.001953 C 154.64155 22.001953 155.35462 21.902596 156.03906 21.707031 C 156.72351 21.531023 157.3489 21.277772 157.91602 20.945312 C 158.48313 20.593297 158.98189 20.191986 159.41211 19.742188 C 159.84233 19.272833 160.17549 18.754637 160.41016 18.1875 L 158.67969 17.71875 C 158.50369 18.129435 158.24846 18.509312 157.91602 18.861328 C 157.58357 19.193788 157.2134 19.478213 156.80273 19.712891 C 156.39207 19.947568 155.94201 20.132636 155.45312 20.269531 C 154.96424 20.406426 154.47522 20.474609 153.98633 20.474609 C 153.24322 20.474609 152.53794 20.338243 151.87305 20.064453 C 151.22771 19.771106 150.65102 19.369796 150.14258 18.861328 C 149.63413 18.352861 149.2133 17.756741 148.88086 17.072266 C 148.56797 16.368234 148.38289 15.606527 148.32422 14.785156 L 161.40625 14.785156 C 161.42581 14.726487 161.43555 14.619342 161.43555 14.462891 L 161.43555 13.992188 C 161.43555 12.93614 161.25046 11.938709 160.87891 11 C 160.50735 10.061291 159.98911 9.2314009 159.32422 8.5078125 C 158.65933 7.7842241 157.85859 7.2153728 156.91992 6.8046875 C 156.00081 6.3744457 154.98381 6.1601562 153.86914 6.1601562 z M 172.84375 6.1601562 C 171.47486 6.1601562 170.20458 6.5030245 169.03125 7.1875 C 167.87747 7.8719755 166.98711 8.7720015 166.36133 9.8867188 L 166.36133 6.4238281 L 164.54297 6.4238281 L 164.54297 21.707031 L 166.53711 21.707031 L 166.53711 12.349609 C 166.71311 11.723803 166.99756 11.147165 167.38867 10.619141 C 167.77978 10.07156 168.21814 9.6020664 168.70703 9.2109375 C 169.21548 8.8198086 169.7649 8.5159021 170.35156 8.3007812 C 170.93823 8.0856604 171.52466 7.9785156 172.11133 7.9785156 C 173.22599 7.9785156 174.04622 8.3895669 174.57422 9.2109375 C 175.12177 10.032308 175.39648 11.353126 175.39648 13.171875 L 175.39648 21.707031 L 177.39062 21.707031 L 177.39062 12.759766 C 177.39063 11.762387 177.31269 10.854574 177.15625 10.033203 C 176.99981 9.2118325 176.74458 8.5163556 176.39258 7.9492188 C 176.04058 7.3820819 175.57104 6.9418093 174.98438 6.6289062 C 174.39771 6.3160032 173.68464 6.1601562 172.84375 6.1601562 z M 188.27344 6.1601562 C 187.13922 6.1601562 186.10273 6.3647053 185.16406 6.7753906 C 184.2254 7.1860759 183.41296 7.7549272 182.72852 8.4785156 C 182.06363 9.1825476 181.54538 10.012437 181.17383 10.970703 C 180.80227 11.928969 180.61719 12.94588 180.61719 14.021484 C 180.61719 15.116645 180.80227 16.143297 181.17383 17.101562 C 181.56494 18.059828 182.10266 18.911152 182.78711 19.654297 C 183.47155 20.377885 184.28399 20.954524 185.22266 21.384766 C 186.16132 21.795451 187.18807 22.001953 188.30273 22.001953 C 189.02629 22.001953 189.71988 21.902596 190.38477 21.707031 C 191.06921 21.531023 191.68487 21.277772 192.23242 20.945312 C 192.79953 20.593297 193.28855 20.191986 193.69922 19.742188 C 194.10989 19.272833 194.42356 18.764377 194.63867 18.216797 L 192.67188 17.630859 C 192.55454 17.982875 192.34997 18.31405 192.05664 18.626953 C 191.76331 18.939856 191.41067 19.224282 191 19.478516 C 190.58933 19.713193 190.14123 19.898261 189.65234 20.035156 C 189.18301 20.172051 188.70373 20.240234 188.21484 20.240234 C 187.45218 20.240234 186.72741 20.084387 186.04297 19.771484 C 185.37808 19.439025 184.79165 18.998752 184.2832 18.451172 C 183.77476 17.884035 183.37341 17.219733 183.08008 16.457031 C 182.78674 15.69433 182.64062 14.881968 182.64062 14.021484 C 182.64062 13.141444 182.777 12.331035 183.05078 11.587891 C 183.34411 10.844746 183.73572 10.207711 184.22461 9.6796875 C 184.73305 9.1321071 185.31949 8.7035281 185.98438 8.390625 C 186.66882 8.0777219 187.40332 7.9199219 188.18555 7.9199219 C 189.12421 7.9199219 189.97366 8.1459049 190.73633 8.5957031 C 191.51855 9.0259449 192.12447 9.6318048 192.55469 10.414062 L 194.49219 9.796875 C 193.94463 8.6821577 193.1322 7.8035658 192.05664 7.1582031 C 190.98109 6.4932841 189.72055 6.1601562 188.27344 6.1601562 z M 204.16992 6.1601562 C 203.07481 6.1601562 202.05781 6.3744457 201.11914 6.8046875 C 200.18047 7.2153728 199.36999 7.7842241 198.68555 8.5078125 C 198.02066 9.2118445 197.49267 10.041734 197.10156 11 C 196.73001 11.938709 196.54297 12.94588 196.54297 14.021484 C 196.54297 15.116645 196.73001 16.143297 197.10156 17.101562 C 197.49267 18.059828 198.0304 18.911152 198.71484 19.654297 C 199.39929 20.377885 200.20003 20.954524 201.11914 21.384766 C 202.05781 21.795451 203.08455 22.001953 204.19922 22.001953 C 204.94233 22.001953 205.65735 21.902596 206.3418 21.707031 C 207.02624 21.531023 207.65164 21.277772 208.21875 20.945312 C 208.78586 20.593297 209.28462 20.191986 209.71484 19.742188 C 210.14507 19.272833 210.47627 18.754637 210.71094 18.1875 L 208.98047 17.71875 C 208.80447 18.129435 208.55119 18.509312 208.21875 18.861328 C 207.88631 19.193788 207.51418 19.478213 207.10352 19.712891 C 206.69285 19.947568 206.2428 20.132636 205.75391 20.269531 C 205.26502 20.406426 204.776 20.474609 204.28711 20.474609 C 203.544 20.474609 202.84067 20.338243 202.17578 20.064453 C 201.53045 19.771106 200.95376 19.369796 200.44531 18.861328 C 199.93687 18.352861 199.51604 17.756741 199.18359 17.072266 C 198.8707 16.368234 198.68562 15.606527 198.62695 14.785156 L 211.70898 14.785156 C 211.72854 14.726487 211.73828 14.619342 211.73828 14.462891 L 211.73828 13.992188 C 211.73828 12.93614 211.5532 11.938709 211.18164 11 C 210.81009 10.061291 210.29184 9.2314009 209.62695 8.5078125 C 208.96206 7.7842241 208.15937 7.2153728 207.2207 6.8046875 C 206.30159 6.3744457 205.28459 6.1601562 204.16992 6.1601562 z M 248.39844 6.1601562 C 247.30333 6.1601562 246.29606 6.3744457 245.37695 6.8046875 C 244.45784 7.2349293 243.6571 7.813521 242.97266 8.5371094 C 242.30777 9.2606978 241.77978 10.100328 241.38867 11.058594 C 241.01712 12.016859 240.83008 13.033771 240.83008 14.109375 C 240.83008 15.165423 241.01712 16.172594 241.38867 17.130859 C 241.76023 18.089125 242.27652 18.930708 242.94141 19.654297 C 243.62585 20.377885 244.42855 20.954524 245.34766 21.384766 C 246.26677 21.795451 247.28377 22.001953 248.39844 22.001953 C 249.5131 22.001953 250.53011 21.795451 251.44922 21.384766 C 252.38789 20.954524 253.18863 20.377885 253.85352 19.654297 C 254.53796 18.930708 255.06594 18.089125 255.4375 17.130859 C 255.80906 16.172594 255.99609 15.165423 255.99609 14.109375 C 255.99609 13.033771 255.79931 12.016859 255.4082 11.058594 C 255.03665 10.100328 254.50866 9.2606978 253.82422 8.5371094 C 253.15933 7.813521 252.35859 7.2349293 251.41992 6.8046875 C 250.50081 6.3744457 249.49355 6.1601562 248.39844 6.1601562 z M 265.87305 6.1601562 C 264.77794 6.1601562 263.77067 6.3744457 262.85156 6.8046875 C 261.93245 7.2349293 261.12976 7.813521 260.44531 8.5371094 C 259.78042 9.2606978 259.25244 10.100328 258.86133 11.058594 C 258.48977 12.016859 258.30469 13.033771 258.30469 14.109375 C 258.30469 15.165423 258.48977 16.172594 258.86133 17.130859 C 259.23288 18.089125 259.75113 18.930708 260.41602 19.654297 C 261.10046 20.377885 261.90315 20.954524 262.82227 21.384766 C 263.74138 21.795451 264.75838 22.001953 265.87305 22.001953 C 266.98771 22.001953 268.00472 21.795451 268.92383 21.384766 C 269.86249 20.954524 270.66324 20.377885 271.32812 19.654297 C 272.01257 18.930708 272.54055 18.089125 272.91211 17.130859 C 273.28366 16.172594 273.46875 15.165423 273.46875 14.109375 C 273.46875 13.033771 273.27392 12.016859 272.88281 11.058594 C 272.51126 10.100328 271.98327 9.2606978 271.29883 8.5371094 C 270.63394 7.813521 269.8332 7.2349293 268.89453 6.8046875 C 267.97542 6.3744457 266.96816 6.1601562 265.87305 6.1601562 z M 144.97461 6.3359375 C 143.8795 6.3359375 142.85275 6.6690653 141.89453 7.3339844 C 140.93631 7.9989034 140.17453 8.9184103 139.60742 10.091797 L 139.60742 6.4238281 L 137.73047 6.4238281 L 137.73047 21.707031 L 139.72461 21.707031 L 139.72461 12.203125 C 140.13528 10.971069 140.8386 10.00286 141.83594 9.2988281 C 142.83327 8.5947962 144.00809 8.2227066 145.35742 8.1835938 L 145.35742 6.3652344 C 145.25964 6.3456779 145.13105 6.3359375 144.97461 6.3359375 z M 101.07422 7.7148438 C 101.81733 7.7148437 102.51287 7.8512098 103.1582 8.125 C 103.82309 8.3987902 104.39978 8.7806202 104.88867 9.2695312 C 105.39712 9.7584423 105.8082 10.344821 106.12109 11.029297 C 106.45354 11.694216 106.64836 12.438395 106.70703 13.259766 L 95.472656 13.259766 C 95.531323 12.457951 95.706667 11.713772 96 11.029297 C 96.312889 10.344821 96.714236 9.7584423 97.203125 9.2695312 C 97.711569 8.7806202 98.298002 8.3987902 98.962891 8.125 C 99.62778 7.8512098 100.33111 7.7148438 101.07422 7.7148438 z M 127.08594 7.7148438 C 127.82905 7.7148437 128.52264 7.8512098 129.16797 8.125 C 129.83286 8.3987902 130.40955 8.7806202 130.89844 9.2695312 C 131.40688 9.7584423 131.81797 10.344821 132.13086 11.029297 C 132.4633 11.694216 132.65813 12.438395 132.7168 13.259766 L 121.48242 13.259766 C 121.54109 12.457951 121.71643 11.713772 122.00977 11.029297 C 122.32265 10.344821 122.724 9.7584423 123.21289 9.2695312 C 123.72134 8.7806202 124.30777 8.3987902 124.97266 8.125 C 125.63755 7.8512098 126.34283 7.7148438 127.08594 7.7148438 z M 153.89844 7.7148438 C 154.64155 7.7148437 155.33514 7.8512098 155.98047 8.125 C 156.64536 8.3987902 157.22205 8.7806202 157.71094 9.2695312 C 158.21938 9.7584423 158.63047 10.344821 158.94336 11.029297 C 159.2758 11.694216 159.47063 12.438395 159.5293 13.259766 L 148.29492 13.259766 C 148.35359 12.457951 148.52893 11.713772 148.82227 11.029297 C 149.13515 10.344821 149.5365 9.7584423 150.02539 9.2695312 C 150.53384 8.7806202 151.12027 8.3987902 151.78516 8.125 C 152.45005 7.8512098 153.15533 7.7148438 153.89844 7.7148438 z M 204.19922 7.7148438 C 204.94233 7.7148437 205.63787 7.8512098 206.2832 8.125 C 206.94809 8.3987902 207.52478 8.7806202 208.01367 9.2695312 C 208.52212 9.7584423 208.9332 10.344821 209.24609 11.029297 C 209.57854 11.694216 209.77336 12.438395 209.83203 13.259766 L 198.59766 13.259766 C 198.65632 12.457951 198.83167 11.713772 199.125 11.029297 C 199.43789 10.344821 199.83924 9.7584423 200.32812 9.2695312 C 200.83657 8.7806202 201.423 8.3987902 202.08789 8.125 C 202.75278 7.8512098 203.45611 7.7148438 204.19922 7.7148438 z M 248.39844 7.9199219 C 249.1611 7.9199219 249.87417 8.0874623 250.53906 8.4199219 C 251.22351 8.732825 251.81968 9.1711444 252.32812 9.7382812 C 252.83657 10.285862 253.23792 10.942377 253.53125 11.705078 C 253.82458 12.448223 253.97266 13.239151 253.97266 14.080078 C 253.97266 14.940562 253.82458 15.743183 253.53125 16.486328 C 253.23792 17.229473 252.83657 17.884035 252.32812 18.451172 C 251.81968 18.998752 251.22351 19.439025 250.53906 19.771484 C 249.87417 20.084387 249.1611 20.240234 248.39844 20.240234 C 247.63577 20.240234 246.91296 20.084387 246.22852 19.771484 C 245.56363 19.458581 244.97524 19.028049 244.4668 18.480469 C 243.97791 17.913332 243.58826 17.26851 243.29492 16.544922 C 243.00159 15.801777 242.85352 14.999155 242.85352 14.138672 C 242.85352 13.278188 243.00159 12.47752 243.29492 11.734375 C 243.58826 10.971674 243.98765 10.305418 244.49609 9.7382812 C 245.00454 9.1711444 245.59292 8.732825 246.25781 8.4199219 C 246.9227 8.0874623 247.63577 7.9199219 248.39844 7.9199219 z M 265.87305 7.9199219 C 266.63571 7.9199219 267.34878 8.0874623 268.01367 8.4199219 C 268.69812 8.732825 269.29429 9.1711444 269.80273 9.7382812 C 270.31118 10.285862 270.71253 10.942377 271.00586 11.705078 C 271.29919 12.448223 271.44531 13.239151 271.44531 14.080078 C 271.44531 14.940562 271.29919 15.743183 271.00586 16.486328 C 270.71253 17.229473 270.31118 17.884035 269.80273 18.451172 C 269.29429 18.998752 268.69812 19.439025 268.01367 19.771484 C 267.34878 20.084387 266.63571 20.240234 265.87305 20.240234 C 265.11038 20.240234 264.38562 20.084387 263.70117 19.771484 C 263.03628 19.458581 262.44985 19.028049 261.94141 18.480469 C 261.45252 17.913332 261.06091 17.26851 260.76758 16.544922 C 260.47424 15.801777 260.32812 14.999155 260.32812 14.138672 C 260.32812 13.278188 260.47424 12.47752 260.76758 11.734375 C 261.06091 10.971674 261.46226 10.305418 261.9707 9.7382812 C 262.47915 9.1711444 263.06558 8.732825 263.73047 8.4199219 C 264.39536 8.0874623 265.11038 7.9199219 265.87305 7.9199219 z M 224.81445 12.027344 L 232.79297 12.027344 C 233.30141 12.027344 233.77095 12.144229 234.20117 12.378906 C 234.65095 12.594027 235.03086 12.888193 235.34375 13.259766 C 235.67619 13.611782 235.93142 14.032573 236.10742 14.521484 C 236.28342 14.990839 236.37109 15.479814 236.37109 15.988281 C 236.37109 16.496749 236.27368 16.995464 236.07812 17.484375 C 235.88257 17.95373 235.60786 18.372568 235.25586 18.744141 C 234.92341 19.096157 234.52402 19.380582 234.05469 19.595703 C 233.60491 19.810824 233.11589 19.917969 232.58789 19.917969 L 224.81445 19.917969 L 224.81445 12.027344 z M 40.605469 13.904297 C 41.34858 13.904297 42.071391 13.97248 42.775391 14.109375 C 43.498946 14.24627 44.192533 14.443032 44.857422 14.697266 L 44.857422 17.189453 C 44.857422 17.365461 44.808715 17.562223 44.710938 17.777344 C 44.632715 17.972908 44.506078 18.157976 44.330078 18.333984 C 43.8803 18.979347 43.215937 19.497543 42.335938 19.888672 C 41.475493 20.279801 40.526679 20.474609 39.490234 20.474609 C 38.98179 20.474609 38.502512 20.386945 38.052734 20.210938 C 37.602957 20.03493 37.211351 19.801159 36.878906 19.507812 C 36.566017 19.194909 36.312743 18.83256 36.117188 18.421875 C 35.941188 18.01119 35.853516 17.570917 35.853516 17.101562 C 35.853516 16.143297 36.291875 15.37185 37.171875 14.785156 C 38.051875 14.198463 39.197469 13.904297 40.605469 13.904297 z "
       transform="matrix(0.26458333,0,0,0.26458333,0,291.17888)"
       id="text18406-2-05-32-9-9-6" />
  </g>
</svg>
