<svg width="17.139" height="17.139" version="1.1" viewBox="0 0 4.5347 4.5347" xmlns="http://www.w3.org/2000/svg">
<g transform="translate(0 -292.47)">
<path d="m2.2673 292.47c-0.2284 0-0.4121 0.18382-0.4121 0.41212v1.4431h-1.4431c-0.2284 0-0.4121 0.18382-0.4121 0.41215 0 0.22838 0.1837 0.41213 0.4121 0.41213h1.4431v1.4431c0 0.22837 0.1837 0.41215 0.4121 0.41215s0.4121-0.18382 0.4121-0.41215v-1.4431h1.4431c0.2284 0 0.4121-0.18382 0.4121-0.41213 0-0.22837-0.1838-0.41215-0.4121-0.41215h-1.4431v-1.4431c0-0.22837-0.1837-0.41212-0.4121-0.41212z" fill="#440045" style="paint-order:markers stroke fill"/>
</g>
</svg>
